<svg width="100%" height="100%" viewBox="0 0 308 74" fill="none" xmlns="http://www.w3.org/2000/svg">
<path d="M41.7 24.6C45.5 24.6 49.1 26.6 51.1 29.4C51.2 29.5 51.2 29.5 51.3 29.6C51.4 29.7 51.5 29.8 51.5 29.9C52.8 31.6 54.9 32.6 57.2 32.6C61.2 32.6 64.5 29.3 64.5 25.3C64.5 23.4 63.8 21.7 62.6 20.4C57.6 14.2 51.6 10.6 41.6 10.6C25.9 10.6 14.1 21.5 14.1 36.8C14.1 52.3 25.9 63.2 41.7 63.2C51.8 63.2 57.7 59.7 62.7 54.1C63.8 52.8 64.5 51.2 64.5 49.4C64.5 45.4 61.3 42.2 57.3 42.2C55.1 42.2 53.2 43.2 51.9 44.7C49.5 47.1 46.8 49.4 41.8 49.4C34.6 49.4 30.5 44.2 30.5 36.8C30.4 29.7 34.4 24.6 41.7 24.6Z" fill="black"/>
<path d="M109.8 13.9001C107.3 12.6001 105.6 12.3 101.9 12.6C95.3 13.2 90.2 17.8001 89.3 18.9001V19.2001C89.3 19.1001 89.3 19.0001 89.3 18.9001C89 14.7001 85.5 11.3 81.2 11.3C76.7 11.3 73.1 14.9 73 19.3V55C73.1 59.4 76.7 62.9001 81.2 62.9001C85.7 62.9001 89.3 59.3001 89.4 54.9001V45.2C89.4 32 97.1 28.6 101.4 28.5C102.5 28.5 105.4 29.6001 107.7 29.2001C112.2 28.4001 115.1 24.1001 114.3 19.7001C113.7 17.1001 112 15.0001 109.8 13.9001Z" fill="black"/>
<path d="M145.6 49.8C152.7 49.8 156.9 44.6 157 37.1C157 29.5 152.7 24.4 145.6 24.4C138.5 24.4 134.1 29.5 134.1 37.1C134.1 44.5 138.5 49.8 145.6 49.8ZM145.6 10.6C161.2 10.6 173.3 21.6 173.3 37C173.3 52.3 161.2 63.2 145.6 63.2C130 63.2 117.8 52.3 117.8 37C117.8 21.6 130 10.6 145.6 10.6Z" fill="black"/>
<path d="M209.3 24.6C213.1 24.6 216.7 26.6 218.7 29.4C218.8 29.5 218.8 29.5 218.9 29.6C219 29.7 219.1 29.8 219.1 29.9C220.4 31.6 222.5 32.6 224.8 32.6C228.8 32.6 232.1 29.3 232.1 25.3C232.1 23.4 231.4 21.7 230.2 20.4C225.2 14.2 219.2 10.6 209.3 10.6C193.6 10.6 181.7 21.5 181.7 36.8C181.7 52.3 193.5 63.2 209.3 63.2C219.4 63.2 225.3 59.7 230.3 54.1C231.4 52.8 232.1 51.2 232.1 49.4C232.1 45.4 228.9 42.2 224.9 42.2C222.7 42.2 220.8 43.2 219.5 44.7C217.1 47.1 214.4 49.4 209.3 49.4C202.1 49.4 198 44.2 198 36.8C198.1 29.7 202.1 24.6 209.3 24.6Z" fill="black"/>
<path d="M265.4 30.6C272.7 32.3 281.9 35.7 281.9 46.5C281.9 55.7 277.1 63.3 261.2 63.3C251.5 63.3 245.2 60.3 240.8 56.4C240.7 56.3 240.6 56.2 240.5 56.1C240.3 56 240.2 55.8 240.1 55.7C240 55.6 239.9 55.4 239.8 55.3C239.6 55.1 239.5 54.9 239.4 54.7C239.4 54.7 239.3 54.6 239.3 54.5C238 52.1 238.3 49.1 240.3 47.1C242.7 44.6 246.7 44.5 249.2 46.8L249.1 46.7C252.3 49.2 256.1 50.7 260.2 50.7C265.4 50.7 267.1 49.7 267.1 47.6C267.1 44.8 263.9 44.8 255.7 42.7C248.8 40.9 241.1 37.1 241.1 26.6C241.1 15.2 249.8 10.6 260.6 10.6C268.9 10.6 274.8 13.3 278.9 17.5C280.2 18.6 281 20.3 281 22.1C281 25.6 278.2 28.4 274.7 28.4C273 28.4 271.5 27.8 270.4 26.7C268 24.7 264.5 22.9 260.7 22.9C257.1 22.9 255.3 23.9 255.3 25.9C255.3 28.7 258.5 29.1 265.4 30.6Z" fill="black"/>
<path d="M287.3 13.1V11.8H282V13.1H283.9V18.3H285.5V13.1H287.3Z" fill="black"/>
<path d="M294.2 18.3V13.7001L292.5 18.3H291.4L289.7 13.7001V18.3H288.2V11.8H290.4L292 16.1L293.6 11.8H295.7V18.3H294.2Z" fill="black"/>
</svg>
