<svg width="215" height="100" viewBox="0 0 215 100" fill="none" xmlns="http://www.w3.org/2000/svg">
<g clip-path="url(#clip0_331_567)">
<path d="M42.6658 38V38.0092C39.7576 38.0087 36.9406 39.0006 34.7011 40.8134C32.4616 42.6263 30.9404 45.1464 30.3999 47.9385C30.2351 48.9031 30.163 49.8807 30.1845 50.8585V61.477C30.1845 62.3675 30.1952 63.2555 30.0587 64.1395C29.7749 65.9768 28.9719 67.8572 27.465 69.0551C26.8327 69.5659 26.0754 69.9074 25.2674 70.0463C25.2232 70.0528 25.0345 70.0463 25.0091 70.0816C24.9837 70.1169 25.0091 70.1431 25.0091 70.1562C24.9987 70.291 24.9956 70.4263 24.9997 70.5615V72C27.1424 71.9915 29.2463 71.441 31.1066 70.402C32.9615 69.3676 34.5394 67.8402 35.4776 65.9558C36.0273 64.8405 36.3457 63.6298 36.4144 62.3937C35.1848 62.3946 33.9618 62.2183 32.7849 61.8706C35.775 61.2815 38.441 59.6432 40.2796 57.2649C41.8352 55.2125 42.672 52.7247 42.6658 50.1707C42.6658 49.0888 42.6658 48.0069 42.6658 46.925V41.4536H60.0937L61.6944 38H42.6658ZM36.4238 56.5967C36.1541 56.597 35.8904 56.5191 35.6661 56.3729C35.4417 56.2268 35.2667 56.0189 35.1632 55.7756C35.0597 55.5323 35.0323 55.2645 35.0846 55.006C35.1368 54.7475 35.2663 54.5099 35.4567 54.3233C35.6471 54.1367 35.8899 54.0095 36.1543 53.9576C36.4187 53.9058 36.6929 53.9318 36.9422 54.0322C37.1915 54.1326 37.4048 54.303 37.555 54.5218C37.7052 54.7406 37.7857 54.998 37.7862 55.2615C37.7866 55.4366 37.7516 55.6101 37.6833 55.772C37.615 55.9339 37.5148 56.081 37.3882 56.205C37.2617 56.329 37.1114 56.4274 36.9459 56.4946C36.7804 56.5618 36.603 56.5965 36.4238 56.5967Z" fill="#30302C"/>
<path d="M132.358 41.5739H128.265L136.271 58.8381H137.196H140.365H141.307L149.314 41.5739H145.202L138.78 55.4224L132.358 41.5739Z" fill="#30302C"/>
<path d="M92.1338 55.3858V58.8381H106.58V55.3858H95.667V41.5739H92.1338V55.3858Z" fill="#30302C"/>
<path d="M86.8327 55.3858H75.8316V51.9335H86.8327V48.4798H75.8316V45.0262H86.8327V41.5739H72.297V45.0262V48.4798V51.9335V55.3858V58.8381H86.8327V55.3858Z" fill="#30302C"/>
<path d="M158.968 44.9896L162.18 51.9335H155.747L158.968 44.9896ZM161.377 41.5739H156.552L148.546 58.8355H152.544L154.15 55.3923H163.786L165.392 58.8446H169.391L161.377 41.5739Z" fill="#30302C"/>
<path d="M110.196 41.5739V58.8381H124.732V55.3858H113.729V51.9335H124.732V48.4798H113.729V45.0262H124.732V41.5739H110.196Z" fill="#30302C"/>
<path d="M184.699 45.0276H176.535V48.4799H184.699C185.168 48.4799 185.617 48.2979 185.948 47.9741C186.28 47.6503 186.466 47.211 186.466 46.7531C186.466 46.2951 186.28 45.8559 185.948 45.532C185.617 45.2082 185.168 45.0262 184.699 45.0262M184.699 41.5726C185.934 41.5724 187.13 41.9936 188.081 42.7636C189.032 43.5336 189.678 44.6039 189.907 45.7897C190.136 46.9754 189.934 48.2021 189.335 49.2578C188.737 50.3134 187.78 51.1317 186.63 51.5712L190 58.8368H186.002L182.8 51.9309H176.536V58.8368H173.002V41.5752H184.699" fill="#30302C"/>
<path d="M43.4905 58.7178C41.9038 60.425 39.8282 61.6264 37.5336 62.1661H46.6115C47.7691 62.1666 48.9023 61.8411 49.8755 61.2286C50.8486 60.6161 51.6205 59.7426 52.0987 58.7125L43.4905 58.7178Z" fill="#30302C"/>
<path d="M46.1618 51.8118C46.0737 52.9963 45.7974 54.1601 45.3428 55.2615H53.682L55.288 51.8079L46.1618 51.8118Z" fill="#30302C"/>
<path d="M46.1967 44.9059V48.3596H56.8913L58.4933 44.9059H46.1967Z" fill="#30302C"/>
</g>
<defs>
<clipPath id="clip0_331_567">
<rect width="165" height="34" fill="white" transform="translate(25 38)"/>
</clipPath>
</defs>
</svg>
