<svg width="100%" height="100%" id="Layer_1" data-name="Layer 1" xmlns="http://www.w3.org/2000/svg" viewBox="0 0 43.18 43.18"><defs><style>.cls-1{fill-rule:evenodd;}</style></defs><path class="cls-1" d="M22.21,25.79c0-.33,0-.67,0-1s0-.55,0-1,0-.94-.32-1.06-.75.06-1-.06-.13-.58-.11-.95c0-.95,0-1.89,0-2.77.06-1.26.05-2.41.08-3.58s.11-2.27.11-3.54c0-.91,0-1.76,0-2.7,0-.5.1-1-.41-.9-.36,0-.49.32-.71.53-.5.51-.9,1.05-1.4,1.51a17,17,0,0,0-1.43,1.5,1.43,1.43,0,0,0-.31.67,12.51,12.51,0,0,0,0,1.26c0,.42,0,.87,0,1.29,0,1.74-.08,3.42-.12,5.11,0,.41,0,.86,0,1.28a3.42,3.42,0,0,1-.1,1.22c-.09.13-.53.13-.78.14-.66,0-1.05,0-1.72,0-.32,0-.71,0-.75-.14s.26-.44.34-.54l.81-1a2.1,2.1,0,0,0,.4-.5,5,5,0,0,0,.06-1.41,27,27,0,0,0,.06-2.71c0-.41,0-1-.39-1s-.51.26-.7.43a20.8,20.8,0,0,0-1.51,1.77c-.49.57-1,1.19-1.5,1.78-.85,1-1.63,2-2.41,3.06l-.48.61c-.15.2-.34.39-.49.6a9.18,9.18,0,0,0-.88,1.32c-.31.69.1,1.06.49,1.37a1.36,1.36,0,0,0,.6.3,6.48,6.48,0,0,0,1.08,0H9.74c1.53,0,2.77-.13,4.33-.06a9.17,9.17,0,0,0,1,0,2.57,2.57,0,0,1,1,.09c.17.13.06.51.08.82s0,.61,0,.81c-.06,1.39,0,2.61,0,4a1.92,1.92,0,0,0,.05.75c.17.33.83.25,1.24.25a18.5,18.5,0,0,0,2.11,0c.32,0,.78-.07.91-.24a2.77,2.77,0,0,0,.07-1c0-1.37,0-2.55.06-3.85,0-.37-.11-1.28.08-1.52s1,0,1.3-.21S22.21,26,22.21,25.79Z" transform="translate(-0.71 -0.77)"/><path class="cls-1" d="M8.28,18.68c.23,0,.41-.23.54-.38.31-.34.48-.57.76-.9l.48-.53c.16-.18.43-.46.63-.65.45-.42.69-.66,1.1-1.07a2.52,2.52,0,0,0,.52-.65,7,7,0,0,0,.08-2.35,2.58,2.58,0,0,0-.28-1,.21.21,0,0,0-.27-.08,7.88,7.88,0,0,0-.91.7l-.45.42L9.56,13c-.46.4-.89.84-1.32,1.26a1.36,1.36,0,0,0-.59,1.16c0,.62.09,1.23.14,1.82S7.86,18.68,8.28,18.68Z" transform="translate(-0.71 -0.77)"/><path class="cls-1" d="M32,15.31a19,19,0,0,1-2.87.5l-.86,0a11.52,11.52,0,0,1-2.87-.13A2.79,2.79,0,0,0,24,15.64c-.29.09-.44.4-.56.69a5.12,5.12,0,0,0,0,2.14c0,.87,0,1.73,0,2.58,0,.5,0,1,0,1.52a2.24,2.24,0,0,0,.13,1.18c.15.22.39.18.58.19s.05,0,.16,0a1.55,1.55,0,0,0,1.09-.68,3.62,3.62,0,0,0,.45-1,3.27,3.27,0,0,1,.41-1.09,2,2,0,0,1,1.15-.83,10.18,10.18,0,0,1,1.21-.2c.56-.09,1-.14,1.61-.23s1-.21,1.5-.31c.22-.05.43,0,.42.14a2.1,2.1,0,0,1-.33.75c-.19.34-.41.65-.6,1-.47.82-1,1.64-1.45,2.45-.22.35-.44.69-.64,1-.6,1-1.32,2-1.91,3.06-.82,1.45-1.66,2.82-2.59,4.21-.77,1.13-1.71,2.24-2.36,3.27-.18.27-.55.6-.43.92s.56.23.8.24c.4,0,.75,0,1.13,0,1.1,0,2.19.08,3.3,0a3.66,3.66,0,0,0,.57-.05,1.14,1.14,0,0,0,.84-.85c.11-.35.15-.73.25-1.09s.26-.82.39-1.23a22.44,22.44,0,0,1,1.64-3.89c.45-.84.91-1.68,1.37-2.52,1.6-2.88,3.27-5.72,5-8.57.24-.4.48-.77.73-1.19a6.5,6.5,0,0,0,.6-1.31A.82.82,0,0,0,38,15a3.6,3.6,0,0,0-1-.19,17.19,17.19,0,0,0-2,0A17.63,17.63,0,0,0,32,15.31Z" transform="translate(-0.71 -0.77)"/><path d="M22.3,44A21.59,21.59,0,1,1,43.89,22.36,21.61,21.61,0,0,1,22.3,44Zm0-41.44A19.85,19.85,0,1,0,42.15,22.36,19.88,19.88,0,0,0,22.3,2.51Z" transform="translate(-0.71 -0.77)"/></svg>