<svg width="100%" height="100%" viewBox="0 0 800 360" fill="none" xmlns="http://www.w3.org/2000/svg">
<g clip-path="url(#clip0_0_3)">
<path d="M491.468 242.164C501.177 182.44 519.457 71.8745 523.692 49.2917C528.669 46.8077 565.237 40.7536 581.101 38.1265C588.014 36.9814 593.007 36.1562 594.893 35.7689C596.552 35.4236 598.354 35.1289 600.265 34.8174C605.082 34.0259 610.538 33.1249 614.832 31.2304C626.62 26.0183 637.112 11.342 642.753 3.46069L645.22 0.00842285L640.994 0.437851C634.982 1.0441 628.767 1.7514 622.537 2.51763C582.389 7.46027 541.829 15.1731 506.97 22.0187C486.349 26.0688 465.223 30.4978 444.172 35.1795C437.436 36.6782 430.489 37.9497 423.139 39.2969C406.298 42.3787 388.885 45.5699 373.586 51.7419C370.083 53.1565 367.481 54.7984 364.871 57.2403C361.857 60.0611 358.623 65.7868 357.95 69.4916C357.343 72.8429 357.386 76.0509 358.084 79.3096L358.118 79.4527C358.75 81.6083 360.375 82.745 362.8 82.745C363.557 82.745 364.408 82.6355 365.418 82.4082C375.312 79.9579 429.319 68.7507 445.418 65.4836L476.884 59.1264C478.181 58.8654 479.781 58.5538 481.633 58.1833C476.32 87.334 468.313 135.076 465.071 158.265L462.233 179.67C461.804 183.029 461.122 188.275 460.305 194.59C458.369 209.502 455.674 230.308 453.653 246.542C444.804 247.612 435.954 248.715 427.096 249.852C433.984 241.389 439.171 231.058 442.968 218.495C448.685 199.617 434.885 189.285 421.53 179.299C415.299 174.643 408.866 169.826 404.16 164.101C398.779 157.398 401.751 147.446 405.195 140.28C411.552 127.035 422.65 116.333 426.145 115.104C426.229 117.95 423.61 126.715 421.985 132.138C420.671 136.516 419.442 140.65 418.76 143.758C417.026 151.63 418.743 162.24 436.712 168.109C438.152 168.597 439.415 168.833 440.577 168.833C444.972 168.833 447.288 165.33 448.82 162.257C454.015 151.58 460.962 130.732 462.604 117.924C463.766 109.967 463.934 100.806 456.449 93.3039C451.447 88.0413 442.109 82.8797 433.184 80.4715C430.961 79.9074 428.654 79.6211 426.347 79.6211C417.522 79.6211 409.944 83.7049 405.119 87.1403C389.988 98.297 373.889 119.061 365.966 137.653C358.354 155.79 360.61 173.801 372.003 185.833C375.388 189.378 380.996 192.258 386.932 195.314C395.697 199.827 405.641 204.947 407.957 212.508C410.997 222.402 402.897 232.607 400.471 234.906C393.516 240.522 388.422 243.368 385.349 243.368C382.276 243.368 380.903 240.101 378.849 234.333C376.937 228.944 374.554 222.233 368.761 217.737C365.957 215.632 361.857 214.47 357.209 214.47C351.87 214.47 346.54 215.952 342.179 218.655C340.461 219.741 338.103 221.543 337.548 224.633C336.925 228.085 338.676 232.279 343.214 238.215C347.206 243.503 349.563 249.641 351.837 255.577C352.451 257.177 353.066 258.76 353.697 260.309C344.2 261.817 334.71 263.383 325.246 265.033C309.02 267.795 292.171 270.489 274.337 273.344C255.426 276.367 236.278 279.432 217.324 282.657C222.09 253.312 228.414 215.792 233.348 187.98C237.087 187.206 240.876 186.422 244.648 185.639C240.724 204.661 240.716 221.324 244.639 233.954C247.309 242.854 253.826 249.321 258.609 252.159C265.025 255.923 274.826 258.381 284.206 258.566C284.576 258.566 284.947 258.575 285.317 258.575C298.739 258.575 309.298 253.935 318.535 243.983C347.332 212.71 362.564 155.824 360.653 118.901C360.08 108.064 356.611 100.158 349.74 94.0112C343.677 88.5886 332.319 84.7995 320.817 84.3616C320.413 84.3364 320 84.328 319.579 84.328C310.62 84.328 299.354 88.9927 292.18 95.6783C277.495 109.353 264.25 129.536 254.828 152.59C249.456 153.559 244.269 154.518 239.217 155.462C243.124 134.175 246.366 117.377 248.614 106.751C250.02 99.6863 248.437 96.192 242.61 93.4217C237.23 90.761 230.132 88.8496 223.597 88.3023C222.865 88.2518 222.166 88.2181 221.509 88.2181C215.379 88.2181 212.365 90.9967 211.11 97.7918C209.788 104.461 205.755 128.845 200.29 163.132C193.681 164.505 187.079 165.919 180.217 167.427C186.507 131.203 193.563 91.2157 195.053 84.4543C196.476 77.2635 195.078 74.2827 188.772 71.1672C183.214 68.5233 174.323 66.4351 168.807 65.812C167.864 65.6941 167.031 65.6352 166.256 65.6352C160.943 65.6352 158.013 68.4896 156.464 75.2089C153.213 90.2558 144.347 141.181 138.756 176.899C130.706 178.785 116.426 182.027 105.858 184.427C99.5684 185.858 95.03 186.886 94.2469 187.079C85.7341 189.066 71.243 193.167 62.7302 196.308C58.5706 197.722 54.5711 199.625 55.2784 205.907C56.7351 219.354 62.5534 225.896 73.0702 225.896C73.6175 225.896 74.1901 225.879 74.7711 225.846C66.7298 242.24 57.2403 253.834 51.683 253.834C51.304 253.834 50.9588 253.775 50.6304 253.666C48.096 252.773 45.5278 243.536 45.8815 225.366C46.2014 208.761 48.8033 190.683 52.6681 178.171C65.0794 137.973 84.2185 104.006 94.4658 104.006C95.2573 104.006 95.973 104.225 96.6635 104.671C99.72 106.675 99.88 114.834 100.015 122.033C100.141 128.82 100.267 135.236 102.515 138.907C106.439 145.307 113.891 150.713 119.07 153.399L120.77 154.283L121.655 152.582C126.345 143.572 132.416 130.016 134.689 116.611C137.299 101.253 134.361 89.6495 125.974 82.1471C119.507 76.3625 107.862 72.2787 97.0256 71.984C96.4867 71.9672 95.9393 71.9503 95.3836 71.9503C89.9442 71.9503 79.52 73.0534 70.7967 80.4294C53.2744 95.19 35.2552 127.928 22.5829 168.016C10.7441 205.469 6.26457 241.019 11.1567 258.541C13.1354 265.985 18.6085 273.352 25.1594 277.335C32.8807 281.764 41.0483 284.206 50.1084 284.812C58.2338 285.46 66.1909 283.566 73.567 279.246C73.4912 279.701 73.4154 280.139 73.3396 280.56C72.0766 287.86 71.504 291.186 72.7418 296.179C74.0974 300.465 75.3857 302.991 78.6612 304.911L79.0485 305.13C81.5409 306.578 83.1912 307.538 85.111 307.538C86.1551 307.538 87.2161 307.252 88.4286 306.629C92.184 304.709 94.5584 299.724 97.0761 294.445C97.3876 293.796 97.6992 293.148 98.0107 292.491L98.0865 292.314C105.362 272.333 106.709 267.669 109.976 256.394C110.633 254.137 111.357 251.611 112.232 248.639C113.765 243.427 115.011 239.646 116.215 235.992C117.487 232.152 118.682 228.523 120.072 223.64C121.587 218.318 122.648 213.013 123.111 210.496C126.9 209.704 130.656 208.921 134.268 208.172L132.971 217.939C130.807 234.881 129.191 249.649 128.424 259.543C127.911 266.987 128.862 271.542 135.32 274.312C139.851 276.198 146.688 277.613 152.759 277.933C153.129 277.95 153.483 277.958 153.82 277.958C159.638 277.958 162.113 275.558 162.955 269.134C163.696 263.837 168.252 236.733 174.584 199.92L190.599 196.687C191.904 196.426 193.42 196.123 195.112 195.786C191.912 216.196 184.612 262.903 180.705 289.182C161.027 292.904 141.897 296.912 123.852 301.358C117.251 302.865 110.405 304.145 103.787 305.374C90.4073 307.867 76.573 310.443 63.4712 315.158C45.1152 321.751 27.9802 331.468 12.5376 344.023C9.71684 346.321 6.94661 348.713 4.4795 351.399C2.87125 353.15 -0.875727 356.325 0.151533 359.019C1.06933 361.419 8.54644 358.084 10.5589 357.562C16.0741 356.131 21.6314 354.876 27.1971 353.63C43.5154 349.984 59.9347 346.81 76.2277 343.054C103.661 336.722 132.272 330.609 161.271 324.884C168.184 323.52 175.123 322.172 182.103 320.85C182.827 321.415 183.661 321.953 184.637 322.459C189.866 325.145 196.316 325.734 201.932 325.961C202.311 325.978 202.665 325.987 203.01 325.987C209.468 325.987 211.152 322.762 211.868 317.23C211.961 316.615 212.062 315.958 212.154 315.293C250.71 308.355 290.673 301.888 333.11 295.733C370.698 290.277 409.692 285.107 451.927 279.979C452.954 282.16 454.756 283.844 457.771 285.132C462.301 287.01 469.138 288.433 475.209 288.753C475.579 288.77 475.933 288.778 476.27 288.778C482.088 288.778 484.564 286.378 485.406 279.954C485.498 279.305 485.675 278.135 485.919 276.552C487.039 276.468 488.142 276.392 489.279 276.308C521.107 274.009 557.188 271.399 582.945 249.986C586.911 246.686 590.456 242.897 593.487 238.729C594.624 237.162 595.718 235.436 596.03 233.458L596.417 230.99L573.607 233.373C546.477 236.194 519.027 239.057 491.443 242.147L491.468 242.164ZM286.681 176.815C291.893 175.695 295.059 174.988 296.365 174.66C306.14 172.083 310.915 168.967 312.86 163.89C313.516 162.13 313.845 160.354 314.148 158.636C314.401 157.255 314.636 155.941 315.024 154.864C316.329 151.226 316.725 148.574 314.948 145.879C314.089 144.456 312.877 143.008 310.452 143.008C309.769 143.008 309.003 143.118 307.993 143.345C305.324 143.8 302.722 144.246 300.162 144.684C309.677 126.648 318.291 116.965 321.819 116.965C321.911 116.965 322.004 116.973 322.105 116.998C322.24 117.023 322.652 117.108 323.132 117.95C327.233 125.014 322.366 154.653 315.268 176.428C304.397 209.881 291.304 227.925 284.509 227.925C284.155 227.925 283.827 227.875 283.49 227.774C282.682 227.53 282.008 226.881 281.436 225.787C277.823 218.941 280.08 198.017 286.673 176.824L286.681 176.815ZM794.502 139.977C789.391 132.07 781.863 126.277 777.282 118.143C772.533 109.706 770.689 99.9895 770.715 90.3736C770.748 79.318 770.849 68.2454 771.018 57.1645C771.388 32.1566 761.368 17.7497 740.596 15.6952C732.31 14.8784 723.326 15.8131 714.569 17.034C695.059 19.7537 679.81 30.7168 671.491 48.6433C666.279 59.8758 662.886 71.883 657.767 83.166C654.651 90.0284 650.651 96.4698 645.7 102.162C643.191 105.042 640.455 107.728 637.558 110.228C633.878 113.403 631.976 114.262 627.151 114.792C629.5 117.327 632.001 118.127 635.302 119.213C636.278 119.533 644.909 121.949 645.288 120.72C637.12 144.532 611.001 159.899 587.669 164.202C591.82 170.82 598.994 175.687 606.37 178.019C615.725 180.975 628.288 175.931 638.038 178.188C650.239 181.008 657.977 191.534 643.823 202.783C656.125 204.458 667.829 203.431 678.379 196.139C685.865 190.969 698.158 182.507 707.412 183.366C712.725 183.854 722.762 193.327 713.66 200.088C714.771 200.56 718.846 201.781 722.189 201.377C733.119 200.063 742.423 196.468 751.466 190.338C760.678 184.099 766.496 175.038 775.64 168.976C780.389 165.827 791.487 163.149 794.746 174.323C795.024 175.274 795.091 176.301 795.091 177.287C801.852 166.063 801.617 150.999 794.502 140.002V139.977ZM706.393 91.2409C691.127 92.5124 684.458 61.1809 695.8 58.0655C707.142 54.95 739.358 81.844 739.358 81.844C739.358 81.844 721.659 89.9695 706.393 91.2409ZM759.448 84.4964C751.18 84.6985 741.21 81.3557 741.21 81.3557C741.21 81.3557 756.948 65.0626 763.221 66.0815C769.494 67.1003 767.717 84.3027 759.448 84.4964Z" fill="black"/>
</g>
<defs>
<clipPath id="clip0_0_3">
<rect width="800" height="359.92" fill="white"/>
</clipPath>
</defs>
</svg>
