<svg width="100%" height="100%" viewBox="0 0 216 138" fill="none" xmlns="http://www.w3.org/2000/svg">
<g clip-path="url(#clip0_1_5)">
<path d="M52.75 58.97C52.39 54.97 50.87 50.55 47.43 48.18C46.2 47.33 44.46 46.38 42.96 46.29C41.66 46.22 40.29 46.69 39.01 46.8C37.95 46.9 36.84 47.44 36.64 48.77C36.49 49.79 37.05 51.54 37.17 52.58C37.49 55.47 37.96 57.25 37.86 60.13C37.63 66.26 37.69 72.53 37.74 78.06C37.76 79.73 37.84 81.42 37.93 83.05C38.11 86.53 38.02 90.14 37.56 93.58C37.38 94.9 36.69 96.27 37.87 97.23C39.57 98.61 43.44 98.65 45.59 99.13C48 99.66 50.94 100.62 52.12 97.68C53.01 95.47 53.2 92.86 53.54 90.54C53.76 89.09 53.97 87.75 54.07 86.28C54.3 82.64 54.23 78.88 54.27 75.23C54.31 71.63 53.98 67.74 53.26 63.35C53.02 61.9 52.88 60.4 52.75 58.95V58.97Z" fill="black"/>
<path d="M147.38 78.87C146.87 76.96 146.17 75.2 144.76 73.79C143.48 72.51 142.08 72.41 140.39 72.2C138.83 72.01 133.15 69.81 133.28 72.66C133.28 72.68 133.28 72.7 133.28 72.72C133.58 79.03 133.56 85.18 133.56 91.46V92.93C133.54 98.68 133.53 104.62 134.32 110.39C134.4 110.95 134.75 111.42 135.29 111.67C135.64 111.83 136.11 111.9 136.63 111.9C138.93 111.9 142.41 110.6 142.89 110.3C144.89 109.05 146.55 106.96 147.8 104.11C149.6 100.02 150.22 95.46 150.06 91.01C149.91 86.73 148.49 82.96 147.39 78.86L147.38 78.87Z" fill="black"/>
<path d="M208.48 28.25C203.94 24.18 198.1 21.83 192.35 19.66C164.72 9.24 133.6 -0.640003 103.68 0.0299972C74.15 0.689997 40.51 12.57 13.47 24.21C11.12 25.22 8.74001 26.25 6.77001 27.87C-3.09999 36.01 0.730013 50.94 0.730013 61.71C0.730013 71.64 0.620013 81.55 0.630013 91.46C0.650013 107.32 0.970014 110.42 15.41 117.1C27.9 122.87 45.64 128 59.04 131.55C90.7 139.94 125.07 139.68 156.91 132.37C173.11 128.65 187.87 122.63 202.65 115.3C207.27 113.01 210.27 111.14 212.22 109.24C217.01 104.55 215.39 99.68 215.88 87.87C216.36 76.3 215.24 64.75 214.79 53.2C214.43 43.87 216.35 35.32 208.48 28.26V28.25ZM104.13 12.1C104.5 11.21 108.45 11.21 109.07 11.15C110.89 10.98 116.81 11.61 118.18 11.76C119.49 11.9 124.23 12.36 124.9 13.01C125.37 13.47 125.08 14.71 124.99 15.33C124.85 16.3 125.3 16.69 124.63 17.49C123.74 18.56 121.1 17.87 119.85 17.85C116.59 17.82 112.52 17.14 112.43 18.18C112.38 18.75 112.89 22.31 112.78 23.58C112.66 24.87 112.76 25.01 114.2 25.11C116.5 25.27 118.79 25.24 121.11 25.39C122.55 25.49 124.12 25.55 125.39 25.98C125.91 26.15 125.77 28.28 125.65 29.13C125.47 30.43 125.79 30.78 124.52 30.83C121.7 30.95 118.76 30.68 115.96 30.88C114.21 31.01 113.12 30.98 113.24 32.13C113.39 33.6 113.36 37.31 113.95 37.95C115.33 38.41 121.36 37.8 123.09 37.62C124.69 37.46 126.26 37.2 127.94 37.31C129.4 37.4 129.6 37.27 129.75 38.7C129.85 39.61 130.22 41.19 130.15 42.1C130.02 43.97 125.92 43.13 124.66 43.26C122.57 43.47 120.32 43.39 118.16 43.58C115.59 43.81 113.01 43.98 110.43 44.02C109.68 44.03 106.54 44.43 105.86 44.32C105.49 44.26 105.09 43.91 104.9 43.62C104.67 43.29 104.49 41.59 104.69 40.93C105.38 38.62 106.52 39.43 106.89 36.88C107.18 34.84 106.53 30.47 106.66 28.42C106.82 25.88 106.96 21.14 106.23 18.68C105.71 16.95 102.57 15.89 104.15 12.08L104.13 12.1ZM65.56 89.36C65.45 90.44 65.34 91.56 65.3 92.64C65 99.37 61.88 106.23 55.89 109.71C52.98 111.4 50.76 112.47 47.26 112.21C44.52 112.01 41.7 111.12 39.03 110.47C35.71 109.67 32.61 108.63 29.37 107.6C27.92 107.14 26.45 106.78 25.01 106.3C24.64 106.18 24.28 106.05 23.95 105.93C21.23 104.9 18.26 104.56 19.31 101.42C20 99.34 21.77 97.37 23.52 96.86C24.62 96.54 25.69 96.22 26.62 95.53C28.11 94.41 27.78 93.4 27.86 91.68C27.92 90.37 27.82 89.05 27.73 87.74C27.67 86.86 27.61 85.94 27.59 85.06C27.5 78.72 27.47 72.49 27.46 67.22C27.46 66.38 27.46 65.55 27.45 64.71C27.43 61.15 27.43 57.68 27.89 54.15C28.45 49.8 22.53 46.1 21.53 51.28C21.09 53.55 23.79 56.15 19.58 56.87C14.68 57.7 14.52 50.27 15.16 47.19C16.37 41.39 22.2 39.43 27.48 38.4C30.01 37.91 31.02 37.27 33.55 36.75C35.17 36.42 38.13 35.51 39.71 35.19C41.43 34.84 42.82 34.82 44.57 34.8C50.89 34.75 56.37 37.94 60.15 42.91C62.07 45.44 63.15 49.12 63.5 52.26C63.94 56.15 64.32 60.07 64.36 63.99C64.37 65.23 64.57 66.35 64.75 67.44C64.93 68.5 65.1 69.5 65.11 70.59C65.12 72.31 65.15 74.05 65.18 75.73C65.26 80.18 66 84.96 65.57 89.37L65.56 89.36ZM67.85 26.25C63.86 27.37 63.54 21.81 65.12 19.72C66.92 17.34 69.52 16.08 72.49 15.61C74.78 15.25 78.06 14.61 78.48 17.47C78.73 19.19 79.03 20.91 79.08 22.65C79.1 23.57 79.1 26.1 80.04 26.73C81.51 27.72 86.67 26.84 88.3 26.57C89.09 26.44 89.48 25.78 89.6 23.35C89.67 21.93 89.69 20.4 89.47 18.99C89.26 17.68 89.32 16.49 89.25 15.16C89.23 14.7 89.01 14.15 89.14 13.67C89.49 12.39 91.17 12.52 92.4 12.48C93.12 12.46 93.83 12.38 94.52 12.3C95.38 12.21 95.45 12.03 95.86 12.73C96.42 13.66 95.75 14.83 95.81 15.82C95.89 16.99 95.92 18.14 95.92 19.36C95.92 21.5 96.2 23.64 96.2 25.79C96.2 29.86 96.04 32.62 95.91 37.34C95.87 38.6 95.58 40.53 95.51 41.78C95.47 42.44 95.77 43.54 95.4 44.12C94.83 45.02 89.94 45.1 88.95 44.43C87.77 43.64 89.14 38.16 88.95 35.73C88.84 34.27 89.28 32.47 88.36 32.47C86.76 32.47 81.23 32.24 80.12 33C79.22 33.63 79.48 36.9 79.43 37.8C79.32 40.12 79.89 44.72 78.97 44.85C76.76 45.17 73.16 46.25 73 43.68C72.67 38.45 73.05 33.23 73.33 27.97C73.42 26.24 74.09 19.03 70.25 20.98C68.43 21.91 69.88 22.34 70.04 23.56C70.19 24.63 68.86 25.97 67.84 26.25H67.85ZM70.23 55.32C69.36 53.72 69.3 50.75 70.82 50.35C86.81 47.59 100.98 50.43 117.16 48.84C121.94 48.37 140.48 50.21 145.61 45.61C147.27 44.12 146.66 41.54 146.79 38.25C146.86 36.52 143.13 30.85 141.27 28.13C139.6 25.69 137.44 22.94 135.22 20.9C133.51 19.32 130.23 17.48 132.37 14.93C133.39 13.72 136.27 12.22 137.72 13.8C139.69 15.95 142.32 17.75 143.85 20.04C145.03 21.81 146.63 23.53 147.51 25.48C148.01 26.61 149.82 28.17 150.36 28.4C152.18 29.18 154.69 18.65 157.83 17.75C159.67 17.22 163.42 19.08 163.71 20.11C164.27 22.08 160.1 27.99 158.35 30.36C156.17 33.33 154.41 35.62 154.28 37.06C153.74 43.02 155.63 50.95 148.23 53.75C143.82 55.42 140.09 54.16 135.56 54.33C131.26 54.49 126.96 54.69 122.56 54.59C111.98 54.36 101.39 54.4 90.81 54.76C84.9 54.96 79.75 56.25 74.76 55.59C73.38 55.41 70.69 56.15 70.23 55.3V55.32ZM110.97 69.82C110.69 75.59 110.23 81.41 110.04 87.23C109.87 92.63 109.92 98.02 109.77 103.43C109.7 105.99 109.75 108.63 109.5 111.18C109.26 113.58 109.36 116.15 108.05 118.28C106.08 121.48 103 122.68 99.49 122.93C97.38 123.08 96.21 123.73 94.08 123.56C93.85 123.54 91.99 123.49 91.76 123.45C89.63 123.1 86.81 122.13 84.78 121.35C79.24 119.21 77.08 112.82 76.4 110.18C74.92 104.37 75.05 97.99 75.17 92.36C75.26 87.98 75.72 83.54 75.52 79.14C75.32 74.79 74.81 70.69 74.09 66.46C73.54 63.2 74.71 61.58 78.07 61.1C79.54 60.89 82.14 60.85 83.33 61.89C84.31 62.74 84.55 64.58 84.68 65.82C84.86 67.63 85.37 69.41 85.44 71.24C85.61 75.5 85.67 79.8 85.57 84.1C85.54 85.53 85.51 86.88 85.51 88.22C85.51 88.8 85.51 89.48 85.49 90.23C85.41 96.72 84.67 107.58 88.52 111.47C91.6 114.58 97.27 113.1 98.68 109.13C99.56 106.65 99.57 103.89 99.87 101.3C100.39 96.78 100.17 92.36 100.37 87.82C100.63 82.07 100.75 76.22 100.39 70.47C100.26 68.45 99.4 65.11 100.29 63.24C100.81 62.14 102.7 61.15 103.85 60.85C109.57 59.35 111.19 65.45 110.98 69.83L110.97 69.82ZM153.23 115.82C150.76 118 147.81 119.51 144.69 120.52C141.56 121.53 137.9 122.62 134.63 122.98C133.98 123.05 133.39 123.17 132.81 123.32C131.7 123.61 130.01 123.69 128.85 123.99C126.69 124.54 124.68 124.22 122.53 123.85C120.64 123.53 118.58 123.53 118.7 121.46C118.84 118.9 119.93 116.31 121.85 114.58C122.72 113.8 123.51 113.54 123.82 112.38C124.14 111.17 123.72 109.68 123.62 108.46C123.57 107.92 123.33 96.77 123.33 96.77C123.31 92.38 123.38 87.99 123.59 83.6C123.69 81.66 123.73 79.67 123.98 77.74C124.19 76.09 123.57 72.74 122.74 71.13C122.26 70.19 120.02 68.03 119.5 66.9C118.77 65.3 118.07 62.37 119.87 61.57C122.56 60.38 126.3 61.14 129.17 61.01C132.4 60.87 135.79 61.28 139.01 61.55C143.56 61.93 147.15 62.66 150.93 65.42C151.72 66 154.62 70.32 155.11 70.8C155.69 71.36 156.19 71.85 156.45 72.43C158.13 76.19 159.77 80.49 160.43 86.45C161.22 93.64 158.73 110.99 153.24 115.82H153.23ZM198.65 102.31C198.04 103.75 196.53 104.74 195.07 105.7C194.8 105.88 194.54 106.05 194.28 106.22C191.9 107.84 189.35 108.59 186.65 109.38C185.02 109.86 183.33 110.35 181.65 111.06C178.7 112.3 175.73 113.3 172.71 114.3C171.74 114.62 170.27 115 168.88 115.04C162.04 115.25 166.68 107.17 168.77 104.41C170.42 102.22 169.85 99.37 170.21 96.85C170.4 95.5 170.41 94.15 170.44 92.78C170.56 87.57 169.7 82.36 169.98 77.12C170.5 67.49 168.58 57.81 169 48.23C169.09 46.44 169.08 44.85 167.8 43.53C166.81 42.51 165.48 41.98 164.86 40.62C163.91 38.54 162.4 33.93 163.66 33.37C165.45 32.79 167.39 33.36 169.17 33.64C171.36 33.99 173.5 34.18 175.67 34.77C179.84 35.91 183.81 37.66 187.81 39.29C190.61 40.43 193.72 40.65 196.46 41.83C198.46 42.7 197.54 45.57 197.07 47.16C196.44 49.31 195.89 50.85 194.53 50.97C192.97 51.11 191.06 50.29 189.22 49.5C188.22 49.07 187.27 48.66 186.34 48.39C185.93 48.27 185.52 48.16 185.11 48.05C182.38 47.3 178.36 45.86 179.9 50.28C180.04 50.69 180.18 51.07 180.23 51.4C180.28 51.71 180.32 52.05 180.35 52.49C180.37 52.73 180.38 52.98 180.39 53.23C180.41 53.6 180.42 53.98 180.46 54.37C180.74 57.7 181.2 59.07 181.06 62.48C181 63.88 181.45 67.32 181.68 68.25C182.06 69.78 184.72 68.73 186.06 68.77C188.29 68.83 190.53 68.77 192.76 68.77C195.24 68.76 196.13 69.54 196.36 71.84C196.52 73.39 197.09 76.73 195.93 77.99C195.21 78.77 191.49 78.3 189.77 78.25C187.72 78.2 185.66 78.12 183.61 78.27C181.14 78.45 180.34 79.98 180.57 82.37C180.66 83.29 180.09 91.75 179.99 94.08C179.93 95.45 179.85 96.83 179.88 98.2C179.9 99.31 179.73 100.92 181.27 100.16C183.78 98.92 186.84 99.05 189.5 98.12C190.55 97.75 191.46 97.53 192.33 97.27C193.37 96.97 194.45 96.67 195.43 96.23C196.13 95.92 197.01 95.38 197.64 96.1C198.62 97.24 199.21 100.95 198.64 102.3L198.65 102.31Z" fill="black"/>
</g>
<defs>
<clipPath id="clip0_1_5">
<rect width="216" height="137.84" fill="white"/>
</clipPath>
</defs>
</svg>
