<svg width="215" height="109" viewBox="0 0 215 109" fill="none" xmlns="http://www.w3.org/2000/svg">
<path d="M114.774 48.931C115.368 48.9341 115.941 48.7021 116.369 48.2844C116.794 47.8684 117.042 47.2988 117.057 46.6991C117.05 46.0913 116.807 45.5106 116.381 45.0825C115.952 44.6526 115.376 44.4086 114.774 44.4023C114.179 44.4163 113.614 44.6648 113.198 45.0948C112.784 45.5232 112.552 46.0996 112.555 46.6991C112.56 47.2904 112.795 47.8557 113.211 48.272C113.627 48.69 114.187 48.9264 114.774 48.931ZM130.29 51.0768H135.796V51.5164C135.491 51.5705 135.196 51.673 134.923 51.8202C134.419 52.0572 133.412 53.2056 132.639 55.1302C131.33 58.4742 129.954 62.4244 128.511 66.9515L127.974 68.6681C127.738 69.4441 127.536 69.9506 127.436 70.2561C127.336 70.5617 127.2 71.0321 126.967 71.6055C126.833 72.0367 126.662 72.455 126.455 72.8552C126.185 73.3617 125.682 74.4004 125.279 74.7127C124.64 75.2535 123.7 75.8612 122.526 75.76C120.243 75.76 118.531 74.0432 118.497 72.0124C118.497 70.6269 119.371 69.7154 120.68 69.7154C121.62 69.7154 122.458 70.2303 122.458 71.3016C122.458 72.0793 121.687 72.8896 121.687 73.2948C121.687 74.3419 122.29 74.8397 123.467 74.8397C124.405 74.8397 125.173 74.232 125.748 73.0165C126.521 71.6311 126.588 70.112 125.95 68.4226L121.116 55.5556C120.007 52.5843 119.168 51.6074 118.128 51.5027V51.063H125.748V51.5024C124.842 51.6037 124.373 52.1445 124.373 53.1229C124.373 53.832 124.64 54.9135 125.144 56.2989L126.05 58.797C127.092 61.4989 127.927 63.8629 128.368 65.3496C129.34 62.2766 130.244 59.5745 131.12 57.2105C131.758 55.4543 132.061 54.2046 132.061 53.4612C132.061 52.1445 131.356 51.5369 130.28 51.5369L130.29 51.0768ZM77.2777 67.5247C76.3052 67.3531 75.4653 66.4776 75.4653 64.6201V42.2289L69.9261 43.4444V43.9183C70.8659 43.8169 71.8026 44.6598 71.8026 46.4503V64.6201C71.8026 66.3763 70.8628 67.3892 69.9261 67.5247C69.8378 67.5404 69.7484 67.5513 69.659 67.5573C69.1797 67.5906 68.6999 67.5051 68.2602 67.3085C67.5161 66.9823 66.8951 66.4003 66.3693 65.5317L63.8097 61.4115C63.2699 60.5424 62.4673 59.8731 61.5217 59.5033C60.5739 59.132 59.5334 59.0787 58.5534 59.3515L61.4409 56.143C63.6217 53.7122 65.6374 52.1586 67.5503 51.5166V51.0766H61.1986V51.5162C62.8436 52.1581 62.7429 53.5763 60.8573 55.808L56.7959 60.5683V42.2289L51.2563 43.4444V43.9183C52.1966 43.9183 53.1334 44.8624 53.1334 46.5173V64.6201C53.1334 66.6133 52.2274 67.3892 51.2563 67.5247V67.9644H58.6148V67.5247C57.4068 67.3531 56.8026 66.4107 56.8026 64.6201V61.2775L58.3793 59.5215L62.1986 65.8356C63.1048 67.3565 63.9445 67.9644 65.2875 67.9644H78.0693V67.621C78.0693 67.621 77.7045 67.5952 77.2777 67.5247ZM92.5276 65.3892V57.8356C92.454 52.8967 90.3956 50.6478 85.6827 50.6478C84.1772 50.6359 82.7118 51.1351 81.5207 52.0656C80.278 53.0116 79.6736 54.0931 79.6736 55.343C79.6736 56.5584 80.3443 57.4699 81.4523 57.4699C82.6277 57.4699 83.4676 56.7952 83.4676 55.8493C83.4676 55.1403 82.9967 54.1602 82.9967 53.4855C82.9967 52.2684 83.9039 51.2211 85.4808 51.2211C87.4961 51.2211 88.9385 52.7423 88.9385 56.1188V58.1447L87.2607 58.5497C86.387 58.7213 85.6501 58.8931 85.0782 59.0648C84.5063 59.2364 83.7693 59.47 82.8957 59.8064C81.1496 60.4829 80.2108 61.1249 79.4044 62.3404C79.0091 62.9278 78.7989 63.6225 78.7999 64.3334C78.7999 67.1351 80.7469 68.4193 83.4676 68.4193C85.6154 68.4193 87.904 67.2707 88.9385 65.1094C88.9532 65.7911 89.1151 66.4614 89.4147 67.0733C90.5533 69.3908 94.3221 68.0209 94.3221 68.0209V67.5815C92.6727 67.8407 92.536 65.8664 92.5276 65.3892ZM88.9438 63.0509C88.9438 64.1651 88.5411 65.0768 87.7358 65.7188C86.9642 66.3609 86.1589 66.6991 85.3189 66.6991C83.6737 66.6991 82.5982 65.6176 82.5982 63.6243C82.5982 62.6803 83.1102 61.8012 83.5391 61.2949C83.8787 60.9451 84.2761 60.6591 84.7144 60.4501C85.2842 60.1463 85.5681 59.9901 85.9571 59.8082L87.493 59.2348C88.2646 58.9309 88.7335 58.7627 88.9354 58.6614L88.9438 63.0509ZM163.113 51.0768H150.056V42.2289H163.113L160.372 46.653L163.113 51.0768ZM136.573 65.8149C135.77 64.9837 135.136 64.0001 134.709 62.9204C134.281 61.8408 134.069 60.6863 134.083 59.5233C134.065 58.3656 134.276 57.2161 134.704 56.1423C135.132 55.0667 135.767 54.0882 136.573 53.2639C138.219 51.5061 140.237 50.6254 142.592 50.6254C144.911 50.6254 146.929 51.5061 148.577 53.2639C149.392 54.0816 150.038 55.0582 150.472 56.1349C150.905 57.2097 151.119 58.3624 151.099 59.5233C151.116 60.6884 150.901 61.8452 150.468 62.9249C150.034 64.0064 149.391 64.9891 148.577 65.8149C146.929 67.5316 144.911 68.4193 142.592 68.4193C140.237 68.4193 138.219 67.5402 136.573 65.8149ZM145.617 53.5455C144.954 52.2392 144.081 51.4735 143.057 51.2674C140.981 50.8469 139.145 52.9944 138.46 56.4091C138.168 57.9407 138.098 59.5072 138.25 61.0595C138.4 62.613 138.829 64.1258 139.517 65.5232C140.182 66.8314 141.053 67.5952 142.077 67.8011C144.153 68.2218 146.042 65.9832 146.732 62.5342C147.304 59.652 147.013 56.1413 145.609 53.5437L145.617 53.5455Z" fill="#30302C"/>
<path d="M116.721 64.6201V51.0769H104.903V51.4838C106.481 51.7208 107.232 52.9191 106.516 54.8623C102.823 64.96 103.058 64.5068 102.823 65.317C102.587 64.5394 102.049 62.6288 101.178 60.2321C100.305 57.8357 99.7342 56.2461 99.4987 55.537C98.5925 52.7335 98.8942 51.6863 100.372 51.5182V51.0786H92.7169V51.5182C93.8586 51.7551 94.8657 53.0716 95.7047 55.4356L96.881 58.5086C98.172 61.8288 99.6901 66.4055 100.197 67.9661H102.741C103.56 65.5626 106.847 55.9713 107.287 54.9962C107.762 53.8854 108.299 53.0442 108.899 52.4622C109.19 52.1487 109.543 51.9012 109.935 51.7364C110.328 51.5711 110.751 51.4921 111.176 51.5044C111.176 51.5044 113.021 51.5044 113.021 53.295V64.6201C113.021 66.5086 112.115 67.3893 111.174 67.5248V67.9644H118.494V67.5248C117.526 67.3893 116.721 66.512 116.721 64.6201Z" fill="#30302C"/>
</svg>
