<svg width="100%" height="100%" viewBox="0 0 1049 164" fill="none" xmlns="http://www.w3.org/2000/svg">
<path fill-rule="evenodd" clip-rule="evenodd" d="M353.982 99.7913H385.639C387.558 99.7913 389.117 101.351 389.117 103.31V119.981C389.117 121.901 388.117 123.7 386.439 124.699C377.765 129.857 366.893 132.775 355.901 132.775C327.561 132.735 307.776 111.785 307.776 81.7601C307.776 53.5339 327.921 31.4646 353.582 31.4646C372.009 31.4646 382.641 37.3818 393.833 46.9371C395.312 48.1765 397.51 48.0166 398.75 46.5373L415.697 26.3871C416.936 24.9478 416.737 22.7489 415.298 21.5095C397.311 6.23696 379.763 0 354.622 0C308.815 0 272.921 36.1024 272.881 82.1599C272.881 104.909 280.875 125.579 295.385 140.411C310.454 155.804 331.079 163.96 355.021 163.96H355.101C385.599 163.96 407.583 150.686 420.614 139.532C421.373 138.892 421.813 137.893 421.813 136.893L421.853 73.4042C421.853 71.3252 420.174 69.646 418.135 69.646L353.982 69.606C351.983 69.606 350.345 71.2452 350.345 73.2443V96.0331C350.305 98.1121 351.944 99.7513 353.982 99.7913ZM33.6956 6.19695C33.6956 4.11796 31.9768 2.3988 29.8983 2.3988H3.87719C1.7987 2.3988 0.079942 4.07798 0.079942 6.19695L0 157.403C0 159.482 1.71875 161.201 3.79725 161.201L109.64 161.281C111.719 161.281 113.438 159.562 113.438 157.483V133.815C113.438 131.736 111.719 130.017 109.64 130.017L37.4129 129.977C35.3344 129.977 33.6156 128.257 33.6156 126.178L33.6956 6.19695ZM253.814 6.31683C253.814 4.23784 252.095 2.51868 250.016 2.51868L138.097 2.43872C136.019 2.43872 134.3 4.15788 134.3 6.23687V29.4655C134.3 31.5445 136.019 33.2637 138.097 33.2637L250.016 33.3436C252.095 33.3436 253.814 31.6245 253.814 29.5455V6.31683ZM171.675 96.5929C169.597 96.5929 167.878 98.312 167.878 100.391L167.798 126.618C167.798 128.697 169.517 130.416 171.596 130.416L251.018 130.456C253.136 130.456 254.815 132.176 254.815 134.255V157.483C254.815 159.562 253.096 161.281 251.018 161.281L138.02 161.201C135.941 161.201 134.223 159.482 134.223 157.403L134.263 69.766C134.263 67.687 135.981 65.9678 138.06 65.9678L160.604 65.8079C162.682 65.7679 166.078 65.7679 168.157 65.7679H168.158L240.226 65.8079C242.304 65.8079 244.023 67.5271 244.023 69.606V92.8347C244.023 94.9137 242.304 96.6329 240.226 96.6329L171.675 96.5929ZM567.665 6.51678C567.665 4.43779 565.946 2.71863 563.868 2.71863L451.949 2.63867C449.871 2.63867 448.152 4.35783 448.152 6.43682V29.6655C448.152 31.7445 449.871 33.4636 451.949 33.4636L563.868 33.5436C565.946 33.5436 567.665 31.8244 567.665 29.7454V6.51678ZM485.527 96.7928C483.449 96.7928 481.73 98.512 481.73 100.591L481.65 126.818C481.65 128.897 483.369 130.616 485.447 130.616L564.87 130.656C566.948 130.656 568.667 132.375 568.667 134.454V157.683C568.667 159.762 566.948 161.481 564.87 161.481L451.871 161.401C449.793 161.401 448.074 159.682 448.074 157.603L448.114 69.9659C448.114 67.8869 449.833 66.1678 451.911 66.1678L474.455 66.0078C476.534 65.9679 479.931 65.9679 482.01 65.9679L554.077 66.0078C556.196 66.0078 557.875 67.727 557.875 69.806V93.0347C557.875 95.1136 556.156 96.8328 554.077 96.8328L485.527 96.7928ZM698.692 98.1521C699.971 99.7913 701.01 99.4315 701.01 97.3525L701.09 6.55681C701.09 4.43785 702.809 2.75867 704.887 2.75867H730.508C732.587 2.75867 734.306 4.47783 734.306 6.55681L734.226 157.763C734.226 159.842 732.507 161.561 730.428 161.561H710.483C708.404 161.561 705.686 160.202 704.407 158.563L630.541 63.1292C629.262 61.49 628.223 61.8498 628.223 63.9288L628.183 157.763C628.183 159.882 626.464 161.561 624.385 161.561H598.764C596.686 161.561 594.967 159.842 594.967 157.763L595.047 6.55681C595.047 4.47783 596.766 2.75867 598.844 2.75867H621.148C623.226 2.75867 625.944 4.118 627.223 5.7572L698.692 98.1521ZM826.404 2.8786L771.284 2.83862C768.565 2.83862 766.367 5.03755 766.367 7.75622L766.287 156.524C766.287 159.322 768.565 161.601 771.363 161.601L826.404 161.641C875.128 161.641 910.503 128.177 910.542 82.08C910.542 60.1307 902.229 40.1004 887.039 25.5875C871.691 10.9547 850.186 2.8786 826.404 2.8786ZM826.364 130.416H804.1C801.781 130.416 799.903 128.537 799.903 126.218L799.943 38.4213C799.943 36.0224 801.901 34.1034 804.26 34.1034H826.404C855.862 34.1034 875.648 53.5739 875.608 82.5198C875.608 111.186 855.822 130.416 826.364 130.416ZM963.26 46.0976C963.26 54.7733 966.538 59.651 996.596 66.8475C1023.3 73.3643 1048.04 83.6792 1048.04 114.984C1048.04 144.729 1025.42 163.96 990.401 163.96H990.361C965.859 163.92 943.155 155.204 924.728 138.732C923.329 137.493 923.169 135.374 924.369 133.935L940.437 114.864C941.676 113.385 943.874 113.185 945.353 114.464C960.622 127.698 974.292 133.375 991 133.375C1005.43 133.375 1014.42 127.298 1014.42 117.543C1014.42 109.826 1012.22 104.269 982.846 97.4725C949.111 89.2765 929.645 78.6817 929.645 48.4964C929.645 20.3901 952.388 0.799683 984.925 0.799683C1006.87 0.799683 1025.58 7.3165 1042.2 20.67C1043.6 21.8294 1043.92 23.9084 1042.84 25.3877L1028.53 45.5379C1027.41 47.0971 1025.22 47.4569 1023.66 46.2975C1010.19 36.2624 997.396 31.3448 984.525 31.3448C971.814 31.3448 963.26 37.2619 963.26 46.0976Z" fill="black"/>
</svg>
