<?xml version="1.0" encoding="UTF-8"?><svg width="100%" height="100%" id="Layer_1" xmlns="http://www.w3.org/2000/svg" viewBox="0 0 406.5 124.5"><defs><style>.cls-1{fill:#f9f8f7;}.cls-2{fill:#010101;}.cls-3{fill:#ececec;}.cls-4{fill:#fefefe;}.cls-5{fill:#fefeff;}.cls-6{fill:#8c8b8c;}.cls-7{fill:#d8d6d9;}.cls-8{fill:#c9c9c9;}.cls-9{fill:#afafb0;}.cls-10{fill:#373636;}.cls-11{fill:#2e2d2d;}.cls-12{fill:#272828;}.cls-13{fill:#494847;}</style></defs><path class="cls-5" d="m86.13,0h320.38v124.5H50.88c.04-.16.08-.32.13-.48,3.93-.05,7.86-.14,11.78-.15,9.98-.02,19.96,0,29.93,0,.54,0,1.07,0,1.59,0,.1-4.83.19-9.63.29-14.61,1.65,0,3.24,0,4.83,0,2.98,0,5.96-.03,8.94-.01.61,0,.78-.18.78-.78,0-3.62.04-7.25.06-10.87,0-.18-.07-.36-.07-.54,0-.93,0-1.86,0-2.73h14.67V30.04c-.97-.05-1.83-.12-2.7-.12-3-.03-6-.03-9-.04-.85,0-1.71,0-2.56-.04-.18,0-.46-.14-.51-.28-.11-.32-.15-.68-.15-1.03-.02-3.83-.02-7.67-.03-11.5,0-.61,0-1.23,0-1.87-4.61,0-9.21,0-13.81,0-.31,0-.61-.02-.92-.03-.02-.09-.03-.19-.05-.28V.73c-2.74-.09-5.34-.17-7.95-.25,0-.16,0-.32,0-.48Zm213.98,55.05c-.1.07-.22.13-.3.22-1.05,1.2-2.1,2.4-3.15,3.61-.44.51-.85,1.05-1.65,1.16,0-.36,0-.65,0-.94,0-8.7,0-17.39,0-26.09,0-.91-.01-1.83-.02-2.74-.12-.03-.24-.06-.36-.09h-9.06c.03.35.09.67.09.99,0,7.16,0,14.32,0,21.48,0,13.99,0,27.98,0,41.97.05.03.1.06.15.09.33-.01.67-.03,1-.03,2.46,0,4.91,0,7.37-.02.81,0,.83-.04.83-.87,0-6.62,0-13.24-.01-19.87,0-.63.19-1.11.61-1.56,1.4-1.48,2.8-2.97,4.16-4.49.36-.41.65-.44,1.03-.1.14.13.27.26.39.4.72.84,1.43,1.68,2.15,2.52,2.66,3.1,5.33,6.19,7.98,9.29.8.94,1.61,1.87,2.41,2.81,2.88,3.37,5.79,6.71,8.69,10.06.52.61.96,1.43,1.63,1.73.68.3,1.59.09,2.41.09,3.02,0,6.04-.02,9.05-.03h1.21c-.56-.49-1-.88-1.44-1.26-.13-.2-.24-.43-.4-.61-2.47-2.84-4.95-5.68-7.42-8.52-2.69-3.08-5.4-6.16-8.09-9.25-2.87-3.3-5.72-6.61-8.58-9.9-1.37-1.58-2.76-3.14-4.13-4.71,9.21-10.05,18.43-20.09,27.72-30.23-3.73,0-7.29,0-10.85,0-.71,0-1.18.1-1.72.75-2.35,2.8-4.85,5.48-7.3,8.2-2.95,3.27-5.91,6.53-8.86,9.8-.42.46-.84.91-1.26,1.37-1.08,1.21-2.16,2.42-3.24,3.63-.34.39-.68.79-1.02,1.18Zm106.02,39.6c-.33-.72-.62-1.27-.85-1.86-1.06-2.72-2.07-5.47-3.15-8.18-3.27-8.2-6.58-16.39-9.86-24.59-.89-2.23-1.71-4.49-2.59-6.72-2.36-5.96-4.74-11.91-7.1-17.86-.66-1.67-1.24-3.36-1.88-5.04-.05-.13-.26-.28-.4-.28-2.65,0-5.29,0-7.94.03-.19,0-.48.25-.56.44-1.08,2.67-2.11,5.36-3.18,8.04-3.33,8.38-6.66,16.77-10.01,25.14-2.31,5.77-4.65,11.52-6.97,17.29-1.16,2.91-2.28,5.83-3.42,8.74-.62,1.58-1.24,3.16-1.88,4.8.22,0,.38,0,.54,0,2.94,0,5.87,0,8.81.04.38,0,.54-.08.68-.43.86-2.26,1.75-4.51,2.63-6.76.99-2.54,1.99-5.07,2.97-7.62.56-1.46,1.1-2.94,1.68-4.5.31,0,.73,0,1.14,0,7.79,0,15.58,0,23.37-.03.47,0,.71.14.86.56.18.5.4.98.58,1.48.61,1.67,1.19,3.35,1.83,5.01.92,2.4,1.86,4.78,2.8,7.17.61,1.56,1.23,3.11,1.83,4.68.13.33.31.43.65.43,1.46-.01,2.92,0,4.37.01,1.6,0,3.2,0,5.02,0Zm-151.71-19.29c.07.21.12.38.19.54.77,1.98,1.54,3.95,2.3,5.93.76,2,1.51,4,2.27,6,.74,1.95,1.46,3.91,2.26,5.85.16.38.12,1.01.88,1,2.71-.04,5.42-.03,8.12-.04.4,0,.81,0,1.28,0-.38-.93-.71-1.74-1.04-2.56-2.14-5.4-4.28-10.8-6.42-16.19-2.85-7.19-5.69-14.39-8.54-21.58-2.5-6.3-5.02-12.59-7.52-18.88-.64-1.6-1.29-3.19-1.87-4.81-.15-.41-.33-.49-.7-.49-2.17.01-4.33,0-6.5,0q-1.47,0-2.01,1.39s-.02.04-.03.05c-3.03,7.59-6.06,15.18-9.09,22.77-2.53,6.34-5.05,12.68-7.58,19.03-1.17,2.94-2.34,5.88-3.52,8.82-1.25,3.12-2.5,6.24-3.74,9.35-.39.99-.77,1.98-1.19,3.05.3.01.5.03.7.03,2.46,0,4.92.02,7.37.02,1.79,0,1.79,0,2.44-1.64.86-2.2,1.7-4.4,2.56-6.6.98-2.53,1.98-5.05,2.95-7.58.44-1.13.84-2.28,1.27-3.47h25.16Zm-91.99-45.23c0,.47,0,.92,0,1.38,0,17.16,0,34.33,0,51.49,0,3.67-.01,7.33-.02,11,0,.34-.05.67.47.67,2.93-.01,5.86,0,8.82,0v-23.81c.23,0,.51,0,.8,0,5.33-.04,10.65-.1,15.98-.09,2.12,0,4.14-.46,6.16-.97,2.79-.71,5.3-2.02,7.51-3.88,2.93-2.47,4.76-5.6,5.65-9.34.43-1.81.56-3.64.68-5.48.06-.9,0-1.82-.11-2.73-.19-1.56-.3-3.15-.72-4.65-1.42-5.05-4.53-8.77-9.23-11.12-1.91-.96-3.93-1.56-6.07-1.89-1.68-.26-3.35-.56-5.05-.57-7,0-14,0-21,0-1.29,0-2.57,0-3.89,0Z"/><path class="cls-5" d="m0,33V0h30.12c0,.16,0,.32,0,.48-.24.04-.48.09-.69.12,0,4.41-.01,8.76,0,13.11,0,1.71.04,1.7-1.65,1.7-4.08,0-8.16,0-12.24-.02-.58,0-.86.1-.84.77.05,2,.04,4,.05,6,.01,2.23.03,4.46.04,6.68,0,.51-.05,1.02-.07,1.51-1.93.09-3.81.22-5.68.26-2.71.05-5.41.04-8.12.01-.55,0-.57.25-.54.65.04.49.06.98.09,1.47-.07.04-.14.09-.21.13-.09.04-.17.08-.26.13Z"/><path class="cls-5" d="m29.5,124.5H0v-31.38c.15,0,.3,0,.45,0-.21,1.51-.17,1.64,1.24,1.63,4.24-.01,8.48.01,12.72.03.18,0,.36.02.58.03.05,4.88.11,9.71.16,14.55.03.04.07.07.1.11.4.05.81.14,1.21.14,1.49.01,2.98,0,4.48,0,2.89.01,5.78.03,8.67.05.07.03.14.07.22.1-.02,3.13-.05,6.26-.07,9.39,0,1.6,0,3.2.01,4.79-.09.18-.19.37-.28.55Z"/><path class="cls-1" d="m.45,93.13c-.15,0-.3,0-.45,0C0,73.08,0,53.04,0,33c.09-.04.17-.08.26-.13.07.04.14.09.22.13,0,.15.02.29.02.44,0,19.71,0,39.42,0,59.13,0,.19-.02.37-.03.56Z"/><path class="cls-8" d="m30.12.48c0-.16,0-.32,0-.48C44.71,0,59.29,0,73.88,0c-.04.16-.08.32-.12.48-.23,0-.46.02-.68.02-13.9,0-27.8,0-41.7,0-.42,0-.83-.02-1.25-.02Z"/><path class="cls-3" d="m29.5,124.5c.09-.18.19-.37.28-.55.27.02.54.05.81.05,5.02,0,10.03,0,15.05,0,1.79,0,3.58.01,5.37.02-.04.16-.08.32-.13.48h-21.38Z"/><path class="cls-7" d="m73.75.48c.04-.16.08-.32.12-.48,2.46,0,4.92,0,7.38,0-.04.16-.08.32-.12.48-2.46,0-4.92,0-7.38,0Z"/><path class="cls-3" d="m81.13.48c.04-.16.08-.32.12-.48,1.62,0,3.25,0,4.88,0,0,.16,0,.32,0,.48-1.67,0-3.33,0-5,0Z"/><path d="m81.13.48c1.67,0,3.33,0,5,0,2.6.08,5.2.16,7.95.25,0,4.7,0,9.41,0,14.12.02.09.03.19.05.28.31.01.61.03.92.03,4.6,0,9.2,0,13.81,0,0,.64,0,1.26,0,1.87,0,3.83.01,7.67.03,11.5,0,.35.04.71.15,1.03.05.14.33.28.51.28.85.04,1.71.03,2.56.04,3,.01,6,.02,9,.04.87,0,1.73.08,2.7.12v64.28h-14.67c0,.87,0,1.8,0,2.73,0,.18.07.36.07.54-.02,3.62-.06,7.25-.06,10.87,0,.6-.18.78-.78.78-2.98-.02-5.96,0-8.94.01-1.59,0-3.18,0-4.83,0-.1,4.98-.2,9.79-.29,14.61-.52,0-1.06,0-1.59,0-9.98,0-19.96-.01-29.93,0-3.93,0-7.86.1-11.78.15-1.79,0-3.58-.02-5.37-.02-5.02,0-10.03,0-15.05,0-.27,0-.54-.03-.81-.05,0-1.6-.02-3.2-.01-4.79.02-3.13.04-6.26.07-9.39-.07-.03-.14-.07-.22-.1-2.89-.02-5.78-.04-8.67-.05-1.49,0-2.98.02-4.48,0-.4,0-.81-.09-1.21-.14-.03-.04-.07-.07-.1-.11-.05-4.83-.11-9.66-.16-14.55-.22-.01-.4-.03-.58-.03-4.24-.01-8.48-.04-12.72-.03-1.41,0-1.45-.12-1.24-1.63.01-.19.03-.37.03-.56,0-19.71,0-39.42,0-59.13,0-.15-.01-.29-.02-.44,0-.09,0-.17,0-.26-.03-.49-.06-.98-.09-1.47-.03-.4,0-.65.54-.65,2.71.02,5.41.03,8.12-.01,1.88-.03,3.75-.17,5.68-.26.02-.49.07-1,.07-1.51,0-2.23-.03-4.46-.04-6.68-.01-2,0-4-.05-6-.02-.68.26-.78.84-.77,4.08.02,8.16.02,12.24.02,1.69,0,1.66,0,1.65-1.7-.02-4.35,0-8.7,0-13.11.21-.04.45-.08.69-.12.42,0,.83.02,1.25.02,13.9,0,27.8,0,41.7,0,.23,0,.46-.01.68-.02,2.46,0,4.92,0,7.38,0Zm12.13,32.26c.18-.23.27-.42,0-.68-.65-.62-1.27-1.28-1.93-1.88-.12-.11-.4-.03-.6-.04-7.73-7.38-16.97-11.18-27.65-11.78v47.46h10.51c.09,1.69.23,3.25.23,4.82.02,11.12.01,22.25.02,33.37,0,.16.03.32.06.57.75-.18,1.49-.23,2.12-.52,2.25-1.01,4.51-2.01,6.68-3.19,2.69-1.47,5.09-3.38,7.41-5.38.26-.05.6-.02.76-.17.62-.57,1.2-1.18,1.76-1.82.1-.12,0-.41,0-.62.07-.08.13-.16.2-.24,3.56-3.89,6.24-8.33,8.24-13.2.99-2.43,1.65-4.95,2.18-7.51.33-1.61.72-3.23.84-4.86.16-2.22.1-4.45.11-6.67,0-1.02.03-2.05-.15-3.04-.26-1.42-.36-2.86-.76-4.28-.52-1.87-.96-3.77-1.56-5.62-.82-2.53-1.93-4.93-3.21-7.25-1.48-2.69-3.3-5.14-5.27-7.48Zm-41.02,72.47v-60.29h-11.09v-6.75h5.58c0-.15.02-.3.02-.44,0-1.83-.01-3.67,0-5.5,0-.86.07-.91.89-.92,3.1-.02,6.21-.04,9.31-.06.26,0,.52-.03.8-.05v-12.43c-.72,0-1.43-.12-2.08.02-1.89.41-3.77.86-5.62,1.41-1.75.52-3.5,1.08-5.17,1.82-6.45,2.84-11.75,7.16-16.13,12.67-4.6,5.78-7.36,12.39-8.85,19.57-.32,1.54-.43,3.13-.51,4.7-.1,2.06-.11,4.12-.08,6.18.02,1.33.12,2.68.34,3.99.23,1.46.66,2.88.95,4.33.36,1.85.98,3.6,1.66,5.35,1.52,3.89,3.5,7.53,6.02,10.86,3.61,4.76,7.96,8.69,13.21,11.53,2.33,1.26,4.78,2.3,7.25,3.26,1.07.41,2.18,1.02,3.5.75Zm5.61.97s.08.05.12.05c2.68-.04,5.36-.07,8.03-.13.61-.01,1.22-.11,1.82-.24.19-.04.39-.29.48-.49.08-.17.03-.41.03-.62,0-8,0-15.99-.01-23.99,0-.37,0-.74,0-1.14-.48,0-.88,0-1.27,0-2.91-.02-5.83-.04-8.74-.07-.4,0-.47.16-.47.53.01,7.93.01,15.87.01,23.8,0,.75,0,1.49,0,2.28Z"/><path class="cls-2" d="m285.65,94.6c0-13.99,0-27.98,0-41.97,0-7.16,0-14.32,0-21.48,0-.32-.06-.64-.09-.99,2.99,0,6.03,0,9.06,0,.12.03.24.06.36.09,0,.91.02,1.83.02,2.74,0,8.7,0,17.39,0,26.09,0,.29,0,.58,0,.94.8-.11,1.21-.65,1.65-1.16,1.05-1.21,2.1-2.41,3.15-3.61.08-.09.2-.15.3-.22.37.2.54.1,1.06-.52.23-.27.24-.45-.04-.65,1.08-1.21,2.16-2.42,3.24-3.63.16.02.39.12.48.05.31-.24.55-.55.84-.81.27-.25.13-.43-.07-.61,2.95-3.27,5.91-6.53,8.86-9.8,2.45-2.72,4.95-5.4,7.3-8.2.55-.65,1.02-.75,1.72-.75,3.56.02,7.11,0,10.85,0-9.29,10.14-18.5,20.18-27.72,30.23,1.37,1.57,2.76,3.13,4.13,4.71,2.86,3.3,5.71,6.61,8.58,9.9,2.69,3.09,5.39,6.17,8.09,9.25,2.48,2.84,4.95,5.67,7.42,8.52.16.18.27.41.4.61.02.21.04.42.08.63.04.21.11.42.16.64-3.02.01-6.04.02-9.05.03-.81,0-1.73.21-2.41-.09-.67-.3-1.1-1.13-1.63-1.73-2.9-3.35-5.82-6.69-8.69-10.06-.8-.94-1.61-1.87-2.41-2.81-2.65-3.11-5.32-6.2-7.98-9.29-.72-.84-1.43-1.68-2.15-2.52-.12-.14-.26-.27-.39-.4-.38-.34-.66-.31-1.03.1-1.36,1.52-2.76,3-4.16,4.49-.42.45-.62.93-.61,1.56.02,6.62.01,13.24.01,19.87,0,.83-.02.86-.83.87-2.46.01-4.91.01-7.37.02-.33,0-.67.02-1,.03-.05-.03-.1-.06-.15-.09Z"/><path class="cls-2" d="m406.12,94.65c-1.82,0-3.42,0-5.02,0-1.46,0-2.92-.02-4.37-.01-.34,0-.52-.1-.65-.43-.6-1.56-1.22-3.12-1.83-4.68-.94-2.39-1.89-4.77-2.8-7.17-.63-1.66-1.22-3.34-1.83-5.01-.18-.5-.4-.98-.58-1.48-.15-.42-.39-.56-.86-.56-7.79.02-15.58.02-23.37.03-.41,0-.83,0-1.14,0-.58,1.56-1.12,3.04-1.68,4.5-.98,2.54-1.98,5.08-2.97,7.62-.88,2.25-1.77,4.5-2.63,6.76-.14.36-.3.44-.68.43-2.94-.03-5.87-.03-8.81-.04-.16,0-.32,0-.54,0,.64-1.64,1.26-3.22,1.88-4.8,1.14-2.91,2.26-5.84,3.42-8.74,2.31-5.77,4.66-11.52,6.97-17.29,3.35-8.38,6.68-16.76,10.01-25.14,1.06-2.68,2.1-5.36,3.18-8.04.08-.2.37-.44.56-.44,2.65-.04,5.29-.04,7.94-.03.14,0,.35.15.4.28.64,1.67,1.23,3.37,1.88,5.04,2.35,5.96,4.74,11.91,7.1,17.86.88,2.23,1.7,4.49,2.59,6.72,3.28,8.2,6.58,16.39,9.86,24.59,1.08,2.71,2.09,5.45,3.15,8.18.23.58.52,1.14.85,1.86Zm-21.03-28.42c-.16-.62-.27-1.23-.48-1.8-.5-1.37-1.06-2.71-1.59-4.07-.86-2.23-1.72-4.46-2.58-6.69-.41-1.06-.81-2.11-1.22-3.17-.42-1.08-.85-2.17-1.27-3.25-.42-1.08-.82-2.17-1.25-3.24-.08-.2-.27-.35-.41-.52-.17.14-.42.25-.5.44-.82,2.05-1.62,4.11-2.41,6.17-1.53,3.99-3.06,7.99-4.59,11.99-.52,1.35-1.07,2.69-1.64,4.14h17.93Z"/><path class="cls-2" d="m254.41,75.37h-25.16c-.44,1.19-.84,2.34-1.27,3.47-.98,2.53-1.97,5.05-2.95,7.58-.85,2.2-1.7,4.4-2.56,6.6-.64,1.64-.65,1.64-2.44,1.64-2.46,0-4.92-.01-7.37-.02-.2,0-.4-.02-.7-.03.41-1.06.79-2.06,1.19-3.05,1.24-3.12,2.49-6.24,3.74-9.35,1.17-2.94,2.35-5.88,3.52-8.82,2.53-6.34,5.05-12.69,7.58-19.03,3.03-7.59,6.06-15.18,9.09-22.77,0-.02.02-.04.03-.05q.55-1.39,2.01-1.39c2.17,0,4.33,0,6.5,0,.38,0,.56.08.7.49.58,1.62,1.24,3.21,1.87,4.81,2.51,6.29,5.02,12.58,7.52,18.88,2.85,7.19,5.69,14.38,8.54,21.58,2.14,5.4,4.28,10.8,6.42,16.19.32.82.66,1.63,1.04,2.56-.47,0-.87,0-1.28,0-2.71,0-5.42,0-8.12.04-.76.01-.73-.62-.88-1-.8-1.93-1.52-3.89-2.26-5.85-.76-2-1.5-4-2.27-6-.76-1.98-1.53-3.95-2.3-5.93-.06-.17-.12-.34-.19-.54Zm-12.84-31.91c-2.91,7.57-5.81,15.12-8.75,22.79h17.96c-.02-.14-.03-.28-.08-.4-.47-1.22-.97-2.44-1.43-3.67-.48-1.27-.93-2.54-1.42-3.81-.38-.98-.82-1.94-1.19-2.92-.41-1.07-.76-2.17-1.17-3.24-.74-1.92-1.5-3.83-2.24-5.75-.24-.63-.39-1.3-.67-1.92-.19-.44-.28-1.04-1.01-1.07Z"/><path d="m162.42,30.14c1.32,0,2.6,0,3.89,0,7,0,14,0,21,0,1.7,0,3.37.31,5.05.57,2.14.33,4.16.94,6.07,1.89,4.7,2.35,7.81,6.07,9.23,11.12.42,1.5.53,3.1.72,4.65.11.9.17,1.82.11,2.73-.13,1.83-.25,3.66-.68,5.48-.89,3.74-2.72,6.86-5.65,9.34-2.2,1.86-4.71,3.17-7.51,3.88-2.02.51-4.04.98-6.16.97-5.33-.01-10.65.06-15.98.09-.28,0-.57,0-.8,0v23.81c-2.96,0-5.89,0-8.82,0-.53,0-.48-.33-.47-.67,0-3.67.02-7.33.02-11,0-17.16,0-34.33,0-51.49,0-.45,0-.9,0-1.38Zm9.34,8.9c.02.39.04.62.04.84,0,7.1.02,14.2,0,21.3,0,.54.1.71.67.71,4.39-.02,8.78,0,13.17,0,2.34,0,4.66-.19,6.89-.92,1.83-.6,3.53-1.46,4.75-3.06,1.31-1.71,1.7-3.75,1.82-5.79.1-1.78-.01-3.57-.3-5.36-.59-3.69-3.4-6-6.59-6.86-2.16-.58-4.38-.82-6.61-.84-4.59-.05-9.19-.01-13.85-.01Z"/><path class="cls-11" d="m305.62,48.87c.2.18.34.36.07.61-.29.26-.54.57-.84.81-.09.07-.32-.03-.48-.05.42-.46.84-.91,1.26-1.37Z"/><path class="cls-10" d="m335.5,94.62c-.05-.21-.12-.42-.16-.64-.04-.21-.05-.42-.08-.63.44.39.88.77,1.44,1.26h-1.21Z"/><path class="cls-11" d="m301.12,53.87c.27.2.26.39.04.65-.52.62-.69.73-1.06.52.34-.39.68-.79,1.02-1.18Z"/><path class="cls-12" d="m294.98,30.25c-.12-.03-.24-.06-.36-.09.12.03.24.06.36.09Z"/><path class="cls-6" d="m94.12,15.13c-.02-.09-.03-.19-.05-.28.02.09.03.19.05.28Z"/><path class="cls-9" d="m285.65,94.6c.05.03.1.06.15.09-.05-.03-.1-.06-.15-.09Z"/><path class="cls-7" d="m.47,32.74c0,.09,0,.17,0,.26-.07-.04-.14-.09-.22-.13.07-.04.14-.09.22-.13Z"/><path class="cls-9" d="m29.62,109.66c.07.03.14.07.22.1-.07-.03-.14-.07-.22-.1Z"/><path class="cls-13" d="m15.16,109.37s.07.07.1.11c-.03-.04-.07-.07-.1-.11Z"/><path class="cls-5" d="m90.11,95.49c-2.32,2-4.72,3.92-7.41,5.38-2.16,1.18-4.43,2.18-6.68,3.19-.64.29-1.37.34-2.12.52-.03-.25-.06-.41-.06-.57,0-11.12,0-22.25-.02-33.37,0-1.57-.15-3.13-.23-4.82h-10.51V18.36c10.68.6,19.93,4.4,27.65,11.78.84.87,1.69,1.73,2.53,2.6,1.98,2.34,3.8,4.79,5.27,7.48,1.28,2.32,2.39,4.73,3.21,7.25.6,1.85,1.05,3.75,1.56,5.62.39,1.42.5,2.86.76,4.28.18.99.15,2.03.15,3.04,0,2.23.06,4.46-.11,6.67-.12,1.63-.51,3.25-.84,4.86-.53,2.56-1.19,5.09-2.18,7.51-1.99,4.87-4.67,9.31-8.24,13.2-.07.08-.13.16-.2.24-.84.87-1.68,1.73-2.52,2.6Z"/><path class="cls-5" d="m52.24,105.21c-1.32.26-2.43-.34-3.5-.75-2.47-.95-4.93-2-7.25-3.26-5.25-2.84-9.6-6.77-13.21-11.53-2.53-3.33-4.5-6.97-6.02-10.86-.68-1.74-1.3-3.5-1.66-5.35-.28-1.45-.71-2.87-.95-4.33-.21-1.32-.31-2.66-.34-3.99-.04-2.06-.02-4.12.08-6.18.08-1.57.19-3.16.51-4.7,1.49-7.17,4.25-13.79,8.85-19.57,4.38-5.5,9.68-9.82,16.13-12.67,1.67-.74,3.42-1.29,5.17-1.82,1.85-.55,3.73-1,5.62-1.41.65-.14,1.36-.02,2.08-.02v12.43c-.28.02-.54.04-.8.05-3.1.02-6.21.03-9.31.06-.82,0-.88.06-.89.92,0,1.83,0,3.67,0,5.5,0,.14-.01.29-.02.44h-5.58v6.75h11.09v60.29Z"/><path class="cls-5" d="m57.85,106.18c0-.79,0-1.54,0-2.28,0-7.93,0-15.87-.01-23.8,0-.37.07-.53.47-.53,2.91.03,5.83.05,8.74.07.39,0,.79,0,1.27,0,0,.41,0,.78,0,1.14,0,8,0,15.99.01,23.99,0,.21.05.45-.03.62-.09.2-.29.44-.48.49-.6.13-1.21.22-1.82.24-2.68.06-5.36.09-8.03.13-.04,0-.07-.03-.12-.05Z"/><path class="cls-10" d="m90.11,95.49c.84-.87,1.68-1.73,2.52-2.6,0,.21.1.5,0,.62-.55.63-1.14,1.25-1.76,1.82-.17.15-.5.12-.76.17Z"/><path class="cls-12" d="m93.26,32.73c-.84-.87-1.69-1.73-2.53-2.6.2,0,.48-.07.6.04.66.61,1.28,1.27,1.93,1.88.27.26.18.45,0,.68Z"/><path class="cls-4" d="m385.08,66.23h-17.93c.57-1.44,1.12-2.79,1.64-4.14,1.54-3.99,3.06-7.99,4.59-11.99.79-2.06,1.59-4.12,2.41-6.17.07-.18.33-.29.5-.44.14.17.33.32.41.52.43,1.07.84,2.16,1.25,3.24.42,1.08.85,2.17,1.27,3.25.41,1.05.81,2.11,1.22,3.17.86,2.23,1.71,4.46,2.58,6.69.53,1.36,1.08,2.7,1.59,4.07.21.57.32,1.18.48,1.8Z"/><path class="cls-4" d="m241.57,43.46c.73.03.82.63,1.01,1.07.27.62.42,1.29.67,1.92.74,1.92,1.51,3.83,2.24,5.75.41,1.07.76,2.17,1.17,3.24.38.98.81,1.94,1.19,2.92.49,1.26.94,2.54,1.42,3.81.47,1.23.96,2.44,1.43,3.67.05.12.05.27.08.4h-17.96c2.94-7.67,5.84-15.22,8.75-22.79Z"/><path class="cls-5" d="m171.75,39.04c4.66,0,9.26-.03,13.85.01,2.23.02,4.45.26,6.61.84,3.19.86,6,3.18,6.59,6.86.29,1.8.41,3.59.3,5.36-.12,2.04-.51,4.08-1.82,5.79-1.22,1.59-2.91,2.46-4.75,3.06-2.23.73-4.56.92-6.89.92-4.39,0-8.78-.02-13.17,0-.57,0-.67-.17-.67-.71.02-7.1,0-14.2,0-21.3,0-.23-.02-.45-.04-.84Z"/></svg>