<svg width="215" height="100" viewBox="0 0 215 100" fill="none" xmlns="http://www.w3.org/2000/svg">
<path d="M154.726 45.8122C152.596 45.8122 150.849 46.5534 149.606 47.9684L149.846 46.7202C149.922 46.3258 149.652 45.9921 149.257 45.9921C148.862 45.9921 148.462 46.3258 148.387 46.7202L144.707 65.7987C144.631 66.1932 144.901 66.5267 145.295 66.5267C145.691 66.5267 146.091 66.1932 146.166 65.7987L147.532 58.7134C148.036 59.6188 149.202 60.8617 151.825 60.8617C153.873 60.8617 155.592 60.233 156.936 58.9901C158.32 57.7088 159.264 55.8028 159.744 53.321C160.222 50.8432 160.012 48.9399 159.119 47.6679C158.258 46.4369 156.777 45.8135 154.726 45.8135V45.8122ZM152.081 59.5248C148.965 59.5248 147.731 57.3806 148.514 53.3224C149.304 49.2258 151.278 47.1491 154.379 47.1491C157.769 47.1491 159.026 49.1676 158.224 53.3224C157.407 57.554 155.456 59.5248 152.081 59.5248ZM186.487 52.5162C184.638 51.8306 182.891 51.1848 183.223 49.464C183.391 48.5997 184.093 47.1477 186.925 47.1477C188.515 47.1477 189.521 47.5871 190.392 48.6646C190.555 48.8657 190.741 48.8657 190.82 48.8657C191.008 48.8563 191.188 48.7859 191.331 48.6653C191.476 48.5447 191.577 48.3803 191.618 48.1973C191.636 48.1177 191.639 48.0352 191.624 47.9549C191.609 47.8745 191.578 47.7981 191.532 47.7301L191.522 47.7115C190.638 46.4502 189.177 45.8108 187.183 45.8108C184.276 45.8108 182.199 47.21 181.764 49.464C181.243 52.1589 183.636 53.0629 185.747 53.8584C187.57 54.5467 189.293 55.1979 188.973 56.8458C188.522 59.1754 186.078 59.5235 184.657 59.5235C182.701 59.5235 181.494 58.9927 180.619 57.7472L180.61 57.7353C180.559 57.6707 180.494 57.6189 180.42 57.584C180.345 57.549 180.264 57.5319 180.181 57.5341C179.993 57.5437 179.814 57.6142 179.67 57.7348C179.527 57.8554 179.426 58.0196 179.383 58.2025C179.365 58.2822 179.363 58.3647 179.378 58.445C179.393 58.5254 179.424 58.6019 179.469 58.6697C180.053 59.7591 181.803 60.8603 184.402 60.8603C187.692 60.8603 189.947 59.3593 190.434 56.8458C190.951 54.1682 188.578 53.2893 186.486 52.5162H186.487ZM182.074 42.0452H180.536L180.833 40.5071C180.908 40.1127 180.639 39.7791 180.242 39.7791C179.848 39.7791 179.449 40.1127 179.373 40.5071L179.076 42.0452H177.536C177.14 42.0452 176.742 42.3787 176.666 42.7731C176.589 43.1676 176.86 43.5012 177.255 43.5012H178.795L178.499 45.0392C178.423 45.4336 178.691 45.7672 179.088 45.7672C179.483 45.7672 179.882 45.4336 179.958 45.0392L180.254 43.5025H181.793C182.188 43.5025 182.587 43.1676 182.664 42.7745C182.685 42.6865 182.687 42.5947 182.667 42.5062C182.646 42.4177 182.607 42.335 182.55 42.2644C182.493 42.1939 182.421 42.1373 182.338 42.0993C182.255 42.0613 182.166 42.0428 182.074 42.0452ZM59.8149 56.8511C60.5626 57.2389 61.9097 57.7776 63.1957 57.7472C64.3625 57.7472 64.9923 57.1185 64.9923 56.3442C64.9923 55.5963 64.5429 55.0894 63.286 54.3719C61.7307 53.4759 60.5626 52.2212 60.5626 50.5772C60.5626 47.6785 63.0473 45.6176 66.6667 45.6176C68.2535 45.6176 69.4803 45.9167 70.1384 46.3059L69.181 49.2337C68.3739 48.8617 67.4968 48.6676 66.6082 48.6646C65.4418 48.6646 64.6926 49.2033 64.6926 50.0398C64.6926 50.6964 65.2309 51.1755 66.278 51.7433C67.8958 52.6698 69.2418 53.9233 69.2418 55.6876C69.2418 58.9729 66.5784 60.8246 62.867 60.7954C61.1619 60.765 59.5749 60.3163 58.7979 59.7789L59.8149 56.8511ZM70.0799 60.7134L74.0893 39.7963H78.2191L76.6334 47.9035L76.6919 47.8506C77.7983 46.5362 79.236 45.6282 81.0601 45.6282C83.2167 45.6282 84.4412 47.0114 84.4412 49.3422C84.4412 50.0596 84.322 51.2178 84.1431 52.1152L82.5265 60.7134H78.3979L79.9537 52.3733C80.073 51.8042 80.1337 51.0709 80.1337 50.5044C80.1337 49.6083 79.776 48.9558 78.8473 48.9558C77.53 48.9558 76.1232 50.7122 75.5844 53.4323L74.2074 60.7147H70.0799V60.7134ZM99.3769 51.3541C99.3769 56.4633 96.0841 60.8246 91.2068 60.8246C87.4944 60.8246 85.5224 58.2555 85.5224 55.0589C85.5224 50.0689 88.814 45.5872 93.7808 45.5872C97.6411 45.5885 99.3769 48.3972 99.3769 51.3541ZM89.7404 54.969C89.7404 56.4633 90.3401 57.6572 91.7468 57.6572C93.931 57.6572 95.1577 53.7737 95.1577 51.235C95.1577 50.0094 94.6785 48.756 93.2132 48.756C90.9672 48.756 89.7404 52.6076 89.7404 54.969ZM98.3898 66.524L101.263 51.4481C101.593 49.746 101.92 47.5435 102.1 45.9935H105.752L105.512 48.3178H105.572C106.679 46.7678 108.295 45.7275 109.94 45.7275C112.962 45.7275 114.19 48.1364 114.19 50.916C114.19 55.9352 111.019 60.8789 106.17 60.8789C105.153 60.8789 104.224 60.7134 103.746 60.327H103.656L102.518 66.5254H98.3898V66.524ZM104.285 57.1198C104.735 57.4772 105.243 57.7167 105.992 57.7167C108.296 57.7167 109.884 53.9233 109.884 51.2642C109.884 50.159 109.494 48.9941 108.236 48.9941C106.801 48.9941 105.453 50.6976 104.975 53.2667L104.285 57.1198ZM114.31 60.7134L117.094 45.9949H121.254L118.44 60.7134H114.31ZM119.668 44.4449C118.501 44.4449 117.724 43.4482 117.724 42.2226C117.724 40.8791 118.77 39.7527 120.087 39.7527C121.344 39.7527 122.151 40.7401 122.151 41.9353C122.123 43.4575 121.015 44.4449 119.729 44.4449H119.668ZM122.031 60.7134L124.216 49.0921H122.302L122.899 45.9949H124.815L124.934 45.2537C125.264 43.5197 125.921 41.7593 127.328 40.5654C128.434 39.6097 129.901 39.1769 131.368 39.1769C132.385 39.1769 133.135 39.3212 133.612 39.5291L132.805 42.752C132.381 42.6098 131.936 42.5387 131.488 42.5416C130.112 42.5416 129.274 43.8493 129.035 45.2549L128.884 45.9935H131.757L131.187 49.0934H128.346L126.161 60.7147H122.031V60.7134ZM136.875 45.9949L137.533 52.5825C137.678 53.7406 137.797 54.9017 137.892 56.0649H137.952C138.282 55.2906 138.58 54.1364 139.18 52.5533L141.693 45.9949H146.002L140.944 56.7717C139.149 60.4752 137.414 63.1754 135.528 64.9384C134.061 66.3123 132.326 66.99 131.488 67.1687L130.35 63.6678C131.04 63.4295 131.906 63.0681 132.684 62.5017C133.642 61.8438 134.45 60.9464 134.928 60.0211C135.047 59.812 135.078 59.6704 135.019 59.3726L132.534 45.9949L136.875 45.9921V45.9949ZM178.697 47.378C178.301 47.378 177.902 47.7115 177.826 48.1061L176.432 55.3382C175.677 59.0218 173.409 59.5248 171.286 59.5248C167.458 59.5248 167.362 57.3488 167.771 55.2204L169.413 46.7215C169.489 46.327 169.219 45.9935 168.823 45.9935C168.427 45.9935 168.028 46.327 167.953 46.7215L166.313 55.219C165.983 56.9332 166.101 58.2105 166.675 59.1278C167.393 60.278 168.858 60.8603 171.026 60.8603C173.194 60.8603 174.883 60.2766 176.047 59.1278C176.976 58.2118 177.586 56.9332 177.917 55.2204L179.288 48.1073C179.362 47.7115 179.093 47.3794 178.697 47.3794V47.378ZM165.514 39.8202C165.118 39.8202 164.718 40.1538 164.643 40.5482L160.899 59.9523C160.824 60.3468 161.093 60.6803 161.49 60.6803C161.885 60.6803 162.284 60.3468 162.36 59.9523L166.102 40.5482C166.179 40.1524 165.908 39.8202 165.514 39.8202ZM44.6669 36.7521L43.6593 37.0631C43.5348 36.6548 43.3732 36.2588 43.1767 35.8798C42.4621 34.5218 41.4159 33.7991 40.1537 33.7978H40.1484C40.0609 33.7978 39.9734 33.8057 39.8858 33.8136C39.8492 33.768 39.8106 33.724 39.7705 33.6813C39.2203 33.0949 38.5136 32.8077 37.669 32.8328C36.0356 32.8792 34.4101 34.0559 33.0921 36.1472C32.164 37.6164 31.4601 39.4654 31.2599 40.895L28.046 41.8889C27.1006 42.1855 27.0701 42.2146 26.9455 43.1054C26.8527 43.7791 24.3773 62.8894 24.3773 62.8894L44.9148 66.4353V36.7097C44.831 36.7154 44.7479 36.7296 44.6669 36.7521ZM39.9244 38.2186L36.4598 39.2894C36.7953 38.0095 37.4303 36.7349 38.21 35.901C38.499 35.5886 38.9048 35.2432 39.3847 35.0446C39.8381 35.9844 39.9349 37.3173 39.9244 38.2186ZM37.6995 33.9168C38.0453 33.8989 38.3881 33.9886 38.6806 34.1737C38.2055 34.428 37.7773 34.7615 37.4145 35.1597C36.3777 36.2702 35.5822 37.9936 35.2666 39.6574L32.4213 40.5363C32.9822 37.9182 35.179 33.9896 37.6995 33.9182V33.9168ZM34.5241 48.8314C34.6342 50.5746 39.2309 50.9557 39.4895 55.0418C39.6923 58.2568 37.7817 60.4553 35.0279 60.6274C31.7239 60.8365 29.9048 58.8909 29.9048 58.8909L30.6049 55.9167C30.6049 55.9167 32.4346 57.2959 33.901 57.2032C34.8582 57.1423 35.2002 56.3653 35.1658 55.8147C35.0226 53.5395 31.2811 53.6732 31.0424 49.9352C30.8436 46.789 32.9132 43.6004 37.4808 43.3119C39.2402 43.202 40.1417 43.6494 40.1417 43.6494L39.097 47.5488C39.097 47.5488 37.9316 47.0193 36.5513 47.1067C34.5241 47.2364 34.5015 48.5124 34.5241 48.83V48.8314ZM41.0089 37.8825C40.9957 37.0578 40.8975 35.9102 40.513 34.9175C41.7513 35.1518 42.3613 36.5509 42.6185 37.3848L41.0089 37.8825ZM45.5951 66.3547L54.115 64.2395C54.115 64.2395 50.4463 39.4801 50.4239 39.3093C50.4123 39.2372 50.3768 39.1711 50.3232 39.1215C50.2696 39.0718 50.201 39.0415 50.1282 39.0353C50.0062 39.0248 47.6064 38.9889 47.6064 38.9889C47.6064 38.9889 46.1439 37.5714 45.5951 37.034V66.3547Z" fill="#30302C"/>
</svg>
