<svg width="100%" height="100%" viewBox="0 0 264 151" fill="none" xmlns="http://www.w3.org/2000/svg">
<path d="M72.822 4.1087C70.6597 3.18564 66.6511 2.78431 63.2194 3.11541C56.9582 3.72744 49.9795 6.87285 44.0143 10.0684C28.4315 18.406 6.90847 30.3205 3.60727 48.8167C0.817814 64.4535 15.1765 65.522 27.122 69.3446C37.0959 72.5402 53.7222 77.4264 44.6766 89.8776C41.3904 94.4026 30.0369 102.274 22.4863 103.121C13.4607 104.135 11.8201 98.9727 10.897 92.5214C1.18406 92.2204 1.91654 105.896 5.26791 109.738C8.39351 113.33 14.153 114.228 20.4996 113.712C37.9487 112.302 56.8328 98.7018 58.5887 82.9146C60.5203 65.5069 43.5026 64.6391 31.4266 60.7261C25.6872 58.865 16.7218 55.253 16.195 50.131C15.6832 45.1496 20.4394 40.4691 23.8108 37.2133C31.6524 29.6683 39.3033 25.5447 49.3123 20.9846C53.8376 18.9278 59.5018 15.2556 65.2062 16.0181C67.6194 16.3442 70.76 18.5666 71.1664 20.3224C71.7233 22.7253 69.6663 24.5915 71.1664 25.951C84.7876 23.6082 80.5131 7.37451 72.822 4.09365" fill="black"/>
<path d="M260.849 103.733C255.702 103.628 252.717 108.569 247.569 107.436C242.914 106.412 238.96 98.6366 240.004 92.727C240.546 89.6569 244.158 85.759 245.849 82.3376C251.096 71.7175 256.926 58.7044 256.886 44.683C256.866 37.3537 254.674 29.3071 249.095 28.1282C240.174 26.247 237.882 34.419 236.106 40.464C232.724 52.0122 230.617 69.9566 231.239 83.6369C231.344 85.9546 232.102 88.5382 231.56 90.7756C230.983 93.1685 227.376 96.1383 225.068 98.5664C220.533 103.347 213.108 108.203 208.517 100.192C212.837 92.3458 223.879 78.4648 222.148 64.4835C221.356 58.0723 216.379 49.9253 208.186 51.5005C201.493 52.7898 198.709 64.8347 197.475 72.6004C196.04 81.6253 196.05 92.0899 198.127 99.5446C194.645 103.904 186.081 108.093 185.143 99.2185C184.541 93.5548 185.263 86.7322 185.469 80.0701C185.88 66.9567 186.467 54.2798 187.742 43.0676C188.449 36.8521 190.235 31.083 188.715 26.1868C184.902 24.2202 179.78 26.2771 178.33 29.1064C176.699 32.2869 177.637 40.0677 177.351 45.6612C177.02 52.0674 177.005 57.8215 176.052 61.8899C159.912 56.7128 155.603 75.1187 154.95 88.182C154.85 90.2288 155.382 92.5815 154.95 94.6735C154.208 98.2854 148.318 107.044 143.918 106.357C138.941 105.585 141.57 93.329 141.971 89.1602C142.699 81.6805 143.843 76.8394 144.565 70.3329C142.488 68.9032 138.69 67.3881 136.126 69.0336C134.029 70.378 133.648 76.3127 133.207 79.0969C131.671 88.804 129.218 97.1968 123.79 101.817C121.928 103.397 119.5 105.243 115.998 104.737C113.309 104.35 109.506 100.799 110.153 97.2671C110.625 94.7236 114.222 93.8156 115.672 92.4009C122.992 85.2573 130.472 67.1975 123.469 57.3449C120.343 52.9503 112.898 51.9771 108.533 55.7245C101.248 61.9853 98.4186 76.7943 99.121 92.0799C95.9001 92.5615 92.2527 92.4812 90.0302 91.1067C92.644 75.8562 89.2676 56.4469 72.8268 59.2964C72.7967 57.3098 73.6245 55.2128 72.8268 53.452C70.4437 51.6711 65.6475 52.5741 64.0571 54.4252C62.9634 72.1539 62.0854 94.9795 60.49 114.153C60.0535 119.39 55.5733 146.796 59.2006 147.729C64.0119 148.973 68.1058 145.627 69.2447 143.761C71.9589 139.311 68.161 115.507 70.228 110.907C81.2403 111.961 84.5064 105.279 88.0836 98.8974C91.1489 100.382 95.8248 100.247 100.42 100.197C102.713 105.474 104.514 110.561 109.185 112.854C118.146 117.263 126.293 109.688 130.287 104.742C130.778 110.255 133.182 114.389 137.752 115.126C146.988 116.621 151.96 107.355 156.581 103.442C158.628 108.284 162.17 113.977 168.592 113.18C172.41 112.708 173.518 109.693 176.383 107.661C180.949 117.017 196.657 113.616 201.704 107.009C203.731 109.081 205.647 110.962 208.191 111.875C218.882 115.718 228.65 102.876 234.912 99.7202C236.311 107.396 238.925 112.904 245.206 114.544C252.958 116.566 262.294 109.809 260.855 103.733M241.629 55.7245C242.728 48.2849 243.711 40.0226 247.795 36.5711C249.471 36.0645 249.827 38.2768 250.068 39.8219C252.215 53.5222 244.283 68.6423 240.651 77.1454C239.848 70.7192 240.576 62.8331 241.629 55.7245ZM80.6182 83.6419C80.1517 92.0147 78.3706 102.55 71.2063 103.116C70.7648 96.5497 70.2631 80.9029 71.8535 72.6054C72.28 70.363 73.6496 67.4835 77.0461 68.3864C80.7035 69.3597 80.9343 77.9682 80.6182 83.647M108.207 87.8659C108.598 78.8661 109.632 64.6541 117.624 63.1993C121.196 73.2576 114.634 83.5567 108.207 87.8659ZM176.052 89.1702C175.801 94.2069 174.943 103.894 170.212 103.774C167.904 103.718 166.364 100.633 165.993 97.2821C165.115 89.4361 166.404 74.592 169.886 70.3429C171.175 68.7777 173.839 67.1524 176.057 68.7226C176.539 75.0234 176.433 81.6253 176.057 89.1702M205.923 90.4645C204.468 84.9964 206.42 63.8264 211.437 62.5521C212.215 62.3565 212.792 62.7026 213.389 62.5521C215.762 67.348 214.056 73.6037 212.415 78.1337C210.73 82.7891 207.885 87.0833 205.923 90.4695" fill="black"/>
<path d="M144.083 59.3465C150.049 56.9335 147.515 46.3535 140.607 48.2097C134.195 49.9404 136.824 62.2812 144.083 59.3465Z" fill="black"/>
</svg>
