<svg width="21" height="21" viewBox="0 0 21 21" fill="none" xmlns="http://www.w3.org/2000/svg">
<path id="Subtract" fill-rule="evenodd" clip-rule="evenodd" d="M0.426773 9.97344C0.183076 10.0168 0 10.2252 0 10.4727C0 10.7203 0.183081 10.9287 0.426778 10.9721C5.21365 11.8244 8.93614 15.7526 9.47759 20.64C9.50004 20.8426 9.66888 21 9.87276 21C10.0766 21 10.2455 20.8425 10.268 20.6399C10.8594 15.3017 15.2457 11.1078 20.6689 10.8164C20.8526 10.8065 21 10.6567 21 10.4728C21 10.2889 20.8526 10.1391 20.6689 10.1292C15.2656 9.83879 10.8915 5.67454 10.2746 0.364282C10.2508 0.159046 10.0794 0 9.87277 0C9.66616 0 9.4948 0.158922 9.47095 0.364158C8.90633 5.22433 5.1945 9.12454 0.426773 9.97344Z" fill="#F9DF5E"/>
</svg>
