<?xml version="1.0" encoding="utf-8"?>
<!-- Generator: Adobe Illustrator 27.2.0, SVG Export Plug-In . SVG Version: 6.00 Build 0)  -->
<svg width="100%" height="100%" version="1.1" id="Layer_2_00000115507320851881306900000014020544342865741489_"
	 xmlns="http://www.w3.org/2000/svg" xmlns:xlink="http://www.w3.org/1999/xlink" x="0px" y="0px" viewBox="0 0 653.8 136.2"
	 style="enable-background:new 0 0 653.8 136.2;" xml:space="preserve">
<style type="text/css">
	.st0{fill:#FFFFFF;}
</style>
<g>
	<g>
		<g>
			<path class="st0" d="M43.5,7.6C21.3,7.6,3.3,25.7,3.3,47.9v40.5c0,22.2,18.1,40.3,40.2,40.3h77.1c22.2,0,40.3-18.1,40.3-40.3
				V47.9c0-22.2-18.1-40.3-40.3-40.3H43.5z"/>
			<g>
				<g>
					<g>
						<path d="M109.9,72.3c-3.7,0-6.9-1.3-9.6-4c-2.7-2.7-4-5.9-4-9.6c0-3.7,1.3-6.9,4-9.6c2.7-2.7,5.9-4,9.6-4c3.7,0,6.9,1.3,9.6,4
							c2.7,2.7,4,5.9,4,9.6c0,3.7-1.3,6.9-4,9.6C116.8,70.9,113.6,72.3,109.9,72.3"/>
						<path d="M74,55.7c-1.7-2.3-3.9-3.6-6.7-4c-2.8-0.4-5.3,0.2-7.6,1.9c-1.9,1.4-3.1,3.2-3.7,5.3c-6.1-0.8-12.9-2.8-20.1-6.9
							c-0.2,0.4,3.3,5.3,8.5,9.6c6.2,5.9,12.8,9.4,19.9,10.4c2.8,0.4,5.3-0.2,7.6-2c2.3-1.7,3.6-3.9,4.1-6.7
							C76.4,60.5,75.8,58,74,55.7"/>
					</g>
					<path d="M116.3,135.9H50.4C22.6,135.9,0,113.3,0,85.4V50.8C0,23,22.6,0.3,50.4,0.3h65.9c27.8,0,50.4,22.6,50.4,50.4v34.7
						C166.8,113.3,144.1,135.9,116.3,135.9z M50.4,16.4c-19,0-34.4,15.4-34.4,34.4v34.7c0,19,15.4,34.4,34.4,34.4h65.9
						c19,0,34.4-15.4,34.4-34.4V50.8c0-19-15.4-34.4-34.4-34.4H50.4z"/>
					<path d="M125.3,119.4c-7.4,0.7-14.9,1.2-22.4,1.4c12.3-9.8,17-31.6,16.2-32.3c-17.7,24.8-40.7,30.4-51.6,31.6v13.1
						c19.4,0.8,38.8,1.2,58.2-0.2v-13.6C125.5,119.4,125.4,119.4,125.3,119.4z"/>
				</g>
			</g>
		</g>
	</g>
	<g>
		<g>
			<g id="Layer_1-2_00000153701519088737457880000000314859341038962583_">
				<g>
					<path d="M323.7,0h28.9l-38.3,135.9h-27.1l-16.4-79.5L266,30.1l-4.8,26.3l-16.4,79.5h-26.4L179.9,0H210l18,77.8l3.9,21.7l4-21.2
						L251.2,0h30l16.1,77.8l4.1,21.7l4.1-20.8L323.7,0z"/>
					<path d="M457,54.9c-8.9,0-15,3.8-18.3,11.3c-1.7,4-2.6,9.1-2.6,15.3v54.4h-26.2V35.6h25.4v14.7c3.4-5.2,6.6-8.9,9.6-11.2
						c5.4-4.1,12.3-6.1,20.6-6.1c10.4,0,18.9,2.7,25.5,8.2c6.6,5.4,9.9,14.5,9.9,27.1v67.7h-26.9V74.8c0-5.3-0.7-9.3-2.1-12.2
						C469.1,57.4,464.2,54.9,457,54.9z"/>
					<path d="M609.8,135.9h-31.7l-24.1-43l-10.9,11.3v31.6h-25.8V0.5h25.8v73.2l32.7-37.8h32.5l-35.1,38.4L609.8,135.9L609.8,135.9z
						"/>
					<g>
						<path d="M389,35.6v100.6h-26.7V35.6H389z"/>
						<path d="M389,35.4V136h-26.7V35.4H389z"/>
						<circle cx="375.7" cy="13.3" r="13.3"/>
					</g>
				</g>
			</g>
		</g>
		<g>
			<path d="M633.2,0.5v1.8h-4.7v15.5h-2.3V2.3h-4.7V0.5H633.2z"/>
			<path d="M653.8,0.6v17.2h-2.3V5l-5.7,12.8h-1.6l-5.7-12.8v12.8h-2.3V0.6h2.4l6.4,14.2l6.4-14.2H653.8z"/>
		</g>
	</g>
</g>
</svg>
