<svg width="98" height="21" viewBox="0 0 98 21" fill="none" xmlns="http://www.w3.org/2000/svg">
<g id="Layer_2_00000115507320851881306900000014020544342865741489_" clip-path="url(#clip0_339_529)">
<g id="Group">
<g id="Group_2">
<g id="Group_3">
<g id="Group_4">
<g id="Group_5">
<g id="Group_6">
<path id="Vector" d="M16.4731 11.1167C15.9185 11.1167 15.4389 10.9258 15.0341 10.5293C14.6294 10.1328 14.4346 9.66294 14.4346 9.11962C14.4346 8.5763 14.6294 8.10641 15.0341 7.70993C15.4389 7.31345 15.9185 7.12256 16.4731 7.12256C17.0277 7.12256 17.5074 7.31345 17.9121 7.70993C18.3168 8.10641 18.5117 8.5763 18.5117 9.11962C18.5117 9.66294 18.3168 10.1328 17.9121 10.5293C17.5074 10.9111 17.0277 11.1167 16.4731 11.1167Z" fill="black"/>
<path id="Vector_2" d="M11.092 8.6791C10.8372 8.34136 10.5074 8.15046 10.0877 8.09172C9.66804 8.03299 9.29331 8.12109 8.94856 8.37073C8.66376 8.57631 8.48389 8.84062 8.39395 9.14899C7.47961 9.03152 6.46033 8.73783 5.3811 8.13578C5.35113 8.19451 5.87575 8.91404 6.65519 9.54547C7.58453 10.4118 8.57382 10.9258 9.63806 11.0726C10.0578 11.1314 10.4325 11.0433 10.7772 10.7789C11.122 10.5293 11.3169 10.2063 11.3918 9.7951C11.4518 9.38394 11.3618 9.01683 11.092 8.6791Z" fill="black"/>
</g>
<path id="Vector_3" d="M17.4325 20.4558H7.5546C3.38758 20.4558 0 17.1372 0 13.0403V7.95951C0 3.87728 3.38758 0.543945 7.5546 0.543945H17.4325C21.5996 0.543945 24.9872 3.86259 24.9872 7.94483V13.0403C25.0021 17.1372 21.5996 20.4558 17.4325 20.4558ZM7.5546 2.90812C4.70664 2.90812 2.39829 5.1695 2.39829 7.95951V13.055C2.39829 15.845 4.70664 18.1064 7.5546 18.1064H17.4325C20.2805 18.1064 22.5889 15.845 22.5889 13.055V7.95951C22.5889 5.1695 20.2805 2.90812 17.4325 2.90812H7.5546Z" fill="black"/>
<path id="Vector_4" d="M18.7815 18.0331C17.6723 18.1358 16.5481 18.2093 15.4239 18.2386C17.2676 16.7996 17.9721 13.5984 17.8522 13.4956C15.199 17.1373 11.7515 17.9596 10.1177 18.1358V20.0595C13.0256 20.177 15.9335 20.2357 18.8414 20.0301V18.0331C18.8115 18.0331 18.7965 18.0331 18.7815 18.0331Z" fill="black"/>
</g>
</g>
</g>
</g>
<g id="Group_7">
<g id="Group_8">
<g id="Layer_1-2_00000153701519088737457880000000314859341038962583_">
<g id="Group_9">
<path id="Vector_5" d="M48.5204 0.5H52.8523L47.1114 20.4559H43.0493L40.5911 8.78194L39.8716 4.91997L39.1521 8.78194L36.6939 20.4559H32.7367L26.9658 0.5H31.4776L34.1757 11.9244L34.7603 15.1109L35.3598 11.9978L37.6532 0.5H42.15L44.5633 11.9244L45.1778 15.1109L45.7924 12.0565L48.5204 0.5Z" fill="black"/>
<path id="Vector_6" d="M68.5011 8.56156C67.1671 8.56156 66.2527 9.11956 65.7581 10.2209C65.5033 10.8083 65.3684 11.5572 65.3684 12.4676V20.4558H61.4412V5.72749H65.2484V7.88608C65.7581 7.1225 66.2377 6.57918 66.6874 6.24144C67.4968 5.63939 68.5311 5.3457 69.7752 5.3457C71.3341 5.3457 72.6082 5.74218 73.5975 6.54981C74.5868 7.34277 75.0814 8.67904 75.0814 10.5293V20.4705H71.0493V11.4837C71.0493 10.7055 70.9444 10.1181 70.7345 9.69225C70.3148 8.92867 69.5803 8.56156 68.5011 8.56156Z" fill="black"/>
<path id="Vector_7" d="M91.4049 20.456H86.6533L83.0409 14.1418L81.407 15.8011V20.4413H77.5398V0.573486H81.407V11.3224L86.3085 5.77172H91.1801L85.9188 11.4105L91.4049 20.456Z" fill="black"/>
<g id="Group_10">
<path id="Vector_8" d="M58.3085 5.72754V20.4999H54.3064V5.72754H58.3085Z" fill="black"/>
<path id="Vector_9" d="M58.3085 5.69824V20.4706H54.3064V5.69824H58.3085Z" fill="black"/>
<path id="Vector_10" d="M56.3149 4.40602C57.4159 4.40602 58.3084 3.53163 58.3084 2.45301C58.3084 1.37439 57.4159 0.5 56.3149 0.5C55.2138 0.5 54.3213 1.37439 54.3213 2.45301C54.3213 3.53163 55.2138 4.40602 56.3149 4.40602Z" fill="black"/>
</g>
</g>
</g>
</g>
<g id="Group_11">
<path id="Vector_11" d="M94.9122 0.573486V0.837804H94.2077V3.11387H93.8629V0.837804H93.1584V0.573486H94.9122Z" fill="black"/>
<path id="Vector_12" d="M97.9999 0.588135V3.11383H97.6552V1.23424L96.8008 3.11383H96.561L95.7066 1.23424V3.11383H95.3618V0.588135H95.7216L96.6809 2.6733L97.6402 0.588135H97.9999Z" fill="black"/>
</g>
</g>
</g>
</g>
<defs>
<clipPath id="clip0_339_529">
<rect width="98" height="20" fill="white" transform="translate(0 0.5)"/>
</clipPath>
</defs>
</svg>
