<svg width="215" height="100" viewBox="0 0 215 100" fill="none" xmlns="http://www.w3.org/2000/svg">
<path fill-rule="evenodd" clip-rule="evenodd" d="M51.5076 38.49L56.1403 51.2757L60.9944 38.49H67.885L56.1021 68.0978H49.2868L52.772 58.9234L44.3956 38.49H51.5076ZM124.288 38.0366C130.509 38.0366 135.047 42.8696 135.047 49.4846C135.047 56.0996 130.509 60.9338 124.288 60.9338C121.992 60.9338 120.058 60.3252 118.583 59.1518L118.487 59.0742L118.405 59.0067V68.091H111.765V38.49H117.636V40.7029L117.67 40.6646C119.117 39.0131 121.305 38.0996 124.009 38.04L124.152 38.0378L124.288 38.0366ZM79.9792 38.0366C86.8305 38.0366 91.6868 42.7751 91.6868 49.4846C91.6868 56.166 86.8148 60.9338 79.9792 60.9338C73.1055 60.9338 68.2256 56.1728 68.2256 49.4846C68.2256 42.7684 73.0886 38.0366 79.9792 38.0366ZM102.749 33.6188V38.49H108.211V44.2309H102.749V52.1554C102.749 53.9284 103.609 54.9038 105.176 54.9634L105.252 54.9645L105.33 54.9657C106.392 54.9657 107.197 54.6866 107.917 53.9936L107.984 53.9273L108.163 53.7439H108.213V60.0765L108.009 60.1744C106.916 60.6975 106.242 60.9338 104.379 60.9338C99.1146 60.9338 96.224 58.065 96.1116 52.7078L96.1094 52.5446V52.3815L96.1082 44.2309H93.7053V38.49H96.2892V33.6188H102.749ZM149.556 38.0366C156.407 38.0366 161.264 42.7751 161.264 49.4846C161.264 56.166 156.392 60.9338 149.556 60.9338C142.682 60.9338 137.802 56.1728 137.802 49.4846C137.802 42.7684 142.667 38.0366 149.556 38.0366ZM166.676 53.6494C168.686 53.6494 170.314 55.2806 170.314 57.291C170.314 59.3025 168.685 60.9338 166.676 60.9338C164.667 60.9338 163.038 59.3025 163.038 57.291C163.038 55.2795 164.668 53.6494 166.676 53.6494ZM123.293 44.0048C120.301 44.0048 118.269 46.221 118.269 49.4846C118.269 52.7494 120.301 54.9657 123.293 54.9657C126.323 54.9657 128.362 52.7561 128.362 49.4846C128.362 46.2143 126.323 44.0048 123.293 44.0048ZM79.9781 44.0048C76.9773 44.0048 74.9105 46.2323 74.9105 49.4846C74.9105 52.7381 76.9773 54.9657 79.9792 54.9657C82.9418 54.9657 85.003 52.7314 85.003 49.4846C85.003 46.239 82.9407 44.0048 79.9781 44.0048ZM149.556 44.0048C146.555 44.0048 144.487 46.2323 144.487 49.4846C144.487 52.7381 146.555 54.9657 149.556 54.9657C152.519 54.9657 154.58 52.7314 154.58 49.4846C154.58 46.239 152.519 44.0048 149.556 44.0048Z" fill="#30302C"/>
</svg>
