<?xml version="1.0" encoding="utf-8"?>
<!-- Generator: Adobe Illustrator 28.1.0, SVG Export Plug-In . SVG Version: 6.00 Build 0)  -->
<svg version="1.1" id="Layer_1" xmlns="http://www.w3.org/2000/svg" xmlns:xlink="http://www.w3.org/1999/xlink" x="0px" y="0px"
	 viewBox="0 0 152 32" style="enable-background:new 0 0 152 32;" xml:space="preserve">
<style type="text/css">
	.st0{fill:#FFFFFF;}
	.st1{fill-rule:evenodd;clip-rule:evenodd;fill:#FFFFFF;}
</style>
<path class="st0" d="M17,19.5c-1.4,1.6-3.3,2.7-5.5,3.3h8.3c2.2,0,4.1-1.3,5-3.3H17z"/>
<path class="st0" d="M19.5,13c-0.1,1.1-0.3,2.2-0.7,3.3h7.7l1.5-3.3H19.5z"/>
<path class="st0" d="M19.5,6.5v3.3h9.8l1.5-3.3H19.5z"/>
<path class="st0" d="M16.2,0c-1.8,0-3.6,0.4-5.2,1.2C9.5,2,8.1,3.2,7.1,4.6C6,6,5.3,7.6,5,9.3c-0.2,0.9-0.2,1.8-0.2,2.8
	c0,1,0,2,0,2.9c0,1.3,0,2.6,0,3.9c0,1.1,0,2.1,0,3.1c0,0.8,0,1.7-0.1,2.5c-0.3,1.7-1,3.5-2.4,4.6c-0.6,0.5-1.3,0.8-2,0.9
	c0,0-0.2,0-0.2,0c0,0,0,0.1,0,0.1c0,0.1,0,0.3,0,0.4c0,0.3,0,0.5,0,0.8c0,0.2,0,0.4,0,0.6c2,0,3.9-0.5,5.6-1.5c1.7-1,3.1-2.4,4-4.2
	c0.5-1,0.8-2.2,0.9-3.4c-1.1,0-2.2-0.2-3.3-0.5c2.7-0.6,5.2-2.1,6.9-4.3c1.5-1.9,2.2-4.3,2.2-6.6c0-1,0-2,0-3V3.3h16L33.7,0H16.2z
	 M10.5,17.5c-0.7,0-1.2-0.6-1.2-1.2c0-0.7,0.6-1.2,1.2-1.2c0.7,0,1.2,0.6,1.2,1.2C11.8,16.9,11.2,17.5,10.5,17.5z"/>
<path class="st1" d="M57,16.3H46.8V13H57V9.8H46.8V6.5H57V3.3H43.6v3.3v3.3V13v3.3v3.3H57V16.3z M61.8,19.5v-3.3v-13h3.3v13h10v3.3
	H61.8z M95.1,3.3h3.8l5.9,13l5.9-13h3.8l-7.4,16.3h-0.9h-2.9h-0.8L95.1,3.3z M124.7,3.3h0.8l7.4,16.3h-3.7l-1.5-3.3h-8.9l-1.5,3.3
	h-3.7l7.4-16.3h0.8H124.7z M126.3,13l-3-6.5l-3,6.5H126.3z M78.5,3.3v16.3h13.4v-3.3H81.7V13h10.1V9.8H81.7V6.5h10.1V3.3H78.5z
	 M151.8,8.1c0-2.7-2.2-4.9-4.9-4.9h-10.8v3.3v3.3V13v6.5h3.3V13h5.8l2.9,6.5h3.7l-3.1-6.8C150.6,12,151.8,10.2,151.8,8.1z
	 M139.4,6.5h7.5c0.9,0,1.6,0.7,1.6,1.6s-0.7,1.6-1.6,1.6h-7.5V6.5z"/>
</svg>
