<svg xmlns="http://www.w3.org/2000/svg" xmlns:xlink="http://www.w3.org/1999/xlink" version="1.1" id="Layer_1" x="0px" y="0px" viewBox="0 0 249 69" style="enable-background:new 0 0 249 69;" xml:space="preserve">
<style type="text/css">
	.st0{fill:#FFFFFF;}
</style>
<path class="st0" d="M54.8,16.6h-9.4V7.1c0-2.8-2.2-5.1-5-5.1H7C4.2,2,2,4.3,2,7.1v48.3c0,2.8,2.2,5.1,5,5.1h43.2l4.7,4.7  c0.5,0.6,1.3,0.9,2.1,0.9c1.6,0,2.9-1.3,2.9-2.9V21.7C59.8,18.9,57.6,16.6,54.8,16.6z M55,55.5H6.8V6.9h33.7v9.7H21.5  c-2.8,0-5,2.3-5,5.1v19.1c0,2.8,2.2,5.1,5,5.1h18.9c2.8,0,5-2.3,5-5.1V21.5H55V55.5L55,55.5z M40.6,21.5v19.5H21.3V21.5H40.6z"/>
<path class="st0" d="M133,18.1c-1.9-1.2-4.2-1.9-6.8-1.9c-2.6,0-4.9,0.6-6.8,1.9c-1.9,1.2-3.5,3-4.6,5.2c-1.1,2.2-1.6,4.9-1.6,7.9  s0.5,5.6,1.6,7.8c1.1,2.2,2.6,4,4.6,5.2c1.9,1.2,4.2,1.9,6.8,1.9c2.6,0,4.9-0.6,6.8-1.9c1.9-1.2,3.5-3,4.6-5.2  c1.1-2.2,1.6-4.8,1.6-7.8s-0.5-5.6-1.6-7.9C136.5,21.1,134.9,19.4,133,18.1z M133.4,36.4c-0.6,1.6-1.5,2.9-2.7,3.8  c-1.2,1-2.7,1.4-4.6,1.4c-1.9,0-3.4-0.5-4.6-1.4c-1.2-1-2.1-2.3-2.7-3.8c-0.6-1.6-0.9-3.3-0.9-5.2c0-1.9,0.3-3.6,0.9-5.2  c0.6-1.6,1.5-2.9,2.7-3.9c1.2-1,2.7-1.5,4.6-1.5c1.9,0,3.4,0.5,4.6,1.5c1.2,1,2.1,2.3,2.7,3.9c0.6,1.6,0.9,3.4,0.9,5.2  C134.3,33.1,134,34.8,133.4,36.4L133.4,36.4z"/>
<path class="st0" d="M156.2,20.7l0-4.2c0-0.2-0.1-0.3-0.3-0.3c-0.4,0-0.7,0-0.9,0c-1.7,0-3.3,0.5-4.7,1.4c-1.2,0.8-2.1,1.8-2.7,3  v-3.7c0-0.2-0.1-0.3-0.3-0.3h-4.1c-0.2,0-0.3,0.1-0.3,0.3v28.5c0,0.2,0.1,0.3,0.3,0.3h4.3c0.2,0,0.3-0.1,0.3-0.3V27.3  c0-1.2,0.3-2.3,0.9-3.3c0.6-1,1.4-1.7,2.4-2.3c1-0.5,2.2-0.8,3.5-0.8c0.4,0,0.9,0,1.3,0.1C156,21,156.1,20.9,156.2,20.7L156.2,20.7z  "/>
<path class="st0" d="M189.4,16.6h4.3c0.2,0,0.3,0.1,0.3,0.3v28.6c0,0.2-0.1,0.3-0.3,0.3h-4.3c-0.2,0-0.3-0.1-0.3-0.3V16.9  C189.1,16.8,189.3,16.6,189.4,16.6z"/>
<path class="st0" d="M191.6,6c-0.9,0-1.7,0.3-2.3,0.9c-0.7,0.6-1,1.4-1,2.3c0,0.9,0.3,1.6,1,2.3c0.6,0.6,1.4,0.9,2.3,0.9  c0.9,0,1.7-0.3,2.3-0.9c0.7-0.6,1-1.4,1-2.3c0-0.9-0.3-1.6-1-2.3C193.3,6.3,192.5,6,191.6,6z"/>
<path class="st0" d="M217,17.9c-1.1-0.7-2.3-1.1-3.5-1.4c-1.2-0.2-2.2-0.3-3.2-0.3c-1.4,0-2.9,0.2-4.4,0.6c-1.5,0.4-2.9,1.1-4.1,2.1  c-1.2,0.9-2.2,2.2-2.9,3.9c-0.1,0.2,0,0.3,0.2,0.4l4.1,1.5c0.1,0,0.3,0,0.3-0.1c0.5-0.9,1.2-1.8,2.3-2.6c1.1-0.9,2.7-1.3,4.7-1.3  s3.3,0.5,4.3,1.4c0.9,1,1.4,2.3,1.4,4.1v0.1c0,0.6-0.2,1-0.6,1.3c-0.5,0.3-1.2,0.5-2.2,0.6c-1.1,0.1-2.5,0.3-4.2,0.5  c-1.3,0.2-2.6,0.4-3.9,0.7c-1.3,0.3-2.5,0.7-3.6,1.3c-1.1,0.6-2,1.4-2.6,2.5c-0.7,1.1-1,2.4-1,4.1c0,1.9,0.4,3.5,1.3,4.9  c0.9,1.3,2.1,2.4,3.6,3.1c1.5,0.7,3.1,1.1,5,1.1c1.7,0,3.1-0.3,4.3-0.8c1.2-0.5,2.1-1.1,2.8-1.8c0.5-0.5,0.9-1.1,1.2-1.5v3.4  c0,0.1,0.1,0.3,0.3,0.3h4.3c0.1,0,0.3-0.1,0.3-0.3V26.6c0-2.3-0.4-4.1-1.1-5.5C219.1,19.7,218.1,18.6,217,17.9L217,17.9z M216.1,35  c0,1.1-0.3,2.2-0.9,3.3c-0.6,1-1.4,1.9-2.6,2.5c-1.1,0.7-2.5,1-4.2,1c-1.7,0-3-0.4-4.1-1.1c-1.1-0.7-1.6-1.8-1.6-3.2  c0-1,0.3-1.9,0.8-2.5c0.6-0.6,1.3-1.1,2.2-1.4c1-0.3,2-0.6,3.1-0.7c0.5-0.1,1.1-0.1,1.8-0.2c0.8-0.1,1.5-0.2,2.3-0.3  c0.8-0.1,1.5-0.3,2.2-0.5c0.4-0.1,0.6-0.2,0.9-0.3V35z"/>
<path class="st0" d="M245.1,32.3c-1.3-1.3-3.2-2.3-5.7-2.9l-4.2-1c-1.6-0.4-2.8-0.9-3.6-1.5c-0.7-0.6-1.1-1.4-1.1-2.4  c0-1.1,0.5-2.1,1.6-2.8c1.1-0.8,2.5-1.1,4.1-1.1c1.2,0,2.2,0.2,3,0.6c0.8,0.4,1.4,0.9,1.8,1.5c0.4,0.5,0.7,1.1,0.9,1.6  c0.1,0.1,0.2,0.2,0.3,0.2l3.8-1.1c0.2,0,0.2-0.2,0.2-0.4c-0.7-1.9-1.8-3.5-3.4-4.7c-1.6-1.3-3.9-1.9-6.7-1.9c-2,0-3.8,0.4-5.4,1.1  c-1.6,0.7-2.9,1.7-3.8,3c-0.9,1.3-1.4,2.8-1.4,4.4c0,2,0.6,3.7,1.9,5.1c1.2,1.3,3.2,2.3,5.8,3l4.7,1.1c1.4,0.3,2.4,0.8,3,1.4  c0.6,0.6,0.9,1.4,0.9,2.3c0,1.1-0.5,2.1-1.7,2.9c-1.1,0.8-2.7,1.3-4.7,1.3c-1.7,0-3.1-0.4-4.1-1.1c-1-0.7-1.7-1.7-2-3  c0-0.1-0.2-0.2-0.3-0.2l-4.1,1c-0.2,0-0.2,0.2-0.2,0.3c0.5,2.3,1.8,4.2,3.6,5.4c1.9,1.3,4.4,1.9,7.3,1.9c2.2,0,4.2-0.4,5.9-1.1  c1.7-0.8,3-1.8,4-3.1c1-1.3,1.4-2.8,1.4-4.5C247,35.3,246.4,33.6,245.1,32.3L245.1,32.3z"/>
<path class="st0" d="M93.1,39.7c-2.4,0-3.4-0.6-3.4-2.2c0-1.9,2.4-2.8,2.4-2.8c1.6,0.6,3.5,0.9,5.5,0.9c6.9,0,11.7-3.7,11.7-9.5  c0-1.3-0.4-3.4-2.1-5.5h5.2c0.2,0,0.3-0.1,0.3-0.3v-3.5c0-0.2-0.1-0.3-0.3-0.3H97.7c-6.8,0-11.6,3.7-11.6,9.6c0,3.1,1.3,5.6,3.6,7.2  c-2.5,1.1-4.2,2.8-4.2,5.3c0,1.9,0.9,3.6,3,4.6c-0.9,0.2-5,1.7-5,6.2c0,5.2,6.2,7.6,13.7,7.6c8.3,0,16-2.7,16-9.7  c0-4.4-3.2-7.6-9.2-7.6H93.1z M97.7,20.7c4.2,0,6.8,1.9,6.8,5.5c0,3.6-2.6,5.4-6.8,5.4s-6.8-1.9-6.8-5.4S93.5,20.7,97.7,20.7z   M97.2,52.8c-5.2,0-8.8-1.4-8.8-4.8c0-2.8,2.5-3.7,5.4-3.7h9.1c3.3,0,5.4,0.8,5.4,3.3C108.3,51.4,103.6,52.8,97.2,52.8z"/>
<path class="st0" d="M165.3,39.7c-2.4,0-3.4-0.6-3.4-2.2c0-1.9,2.4-2.8,2.4-2.8c1.6,0.6,3.5,0.9,5.5,0.9c6.9,0,11.7-3.7,11.7-9.5  c0-1.3-0.4-3.4-2.1-5.5h5.2c0.2,0,0.3-0.1,0.3-0.3v-3.5c0-0.2-0.1-0.3-0.3-0.3h-14.8c-6.8,0-11.6,3.7-11.6,9.6  c0,3.1,1.3,5.6,3.6,7.2c-2.5,1.1-4.2,2.8-4.2,5.3c0,1.9,0.9,3.6,3,4.6c-0.9,0.2-5,1.7-5,6.2c0,5.2,6.2,7.6,13.7,7.6  c8.3,0,16-2.7,16-9.7c0-4.4-3.2-7.6-9.2-7.6H165.3z M169.9,20.7c4.2,0,6.8,1.9,6.8,5.5c0,3.6-2.6,5.4-6.8,5.4  c-4.2,0-6.8-1.9-6.8-5.4S165.7,20.7,169.9,20.7z M169.3,52.8c-5.2,0-8.8-1.4-8.8-4.8c0-2.8,2.5-3.7,5.4-3.7h9.1  c3.3,0,5.4,0.8,5.4,3.3C180.4,51.4,175.8,52.8,169.3,52.8z"/>
</svg>