<?xml version="1.0" encoding="utf-8"?>
<!-- Generator: Adobe Illustrator 28.1.0, SVG Export Plug-In . SVG Version: 6.00 Build 0)  -->
<svg version="1.1" id="Layer_1" xmlns="http://www.w3.org/2000/svg" xmlns:xlink="http://www.w3.org/1999/xlink" x="0px" y="0px"
	 viewBox="0 0 192 37" style="enable-background:new 0 0 192 37;" xml:space="preserve">
<style type="text/css">
	.st0{fill:#FFFFFF;}
</style>
<path class="st0" d="M21.2,21L21.2,21c0,1.3-0.3,2.6-0.8,3.8c-1.5,3.2-5,5.5-8.7,5.6c-0.1,0-0.2,0-0.3,0c-1,0-1.9-0.1-2.9-0.4
	c-4.2-1.3-6-5.2-6-5.2c-0.2-0.5-0.4-1.1-0.5-1.7C1.5,19.8,3.6,17,4,16.5c0.5-0.6,1.1-1.2,1.7-1.8l1.2,1.6l-1,1
	c-0.3,0.3-2,2.5-1.4,5.3c0.6,3.3,4,4.8,4.5,5c0.1,0,0.3,0.1,0.3,0.1c0.7,0.2,1.5,0.3,2.3,0.3c2.7-0.1,5.4-1.8,6.5-4.2
	c0.4-0.9,0.6-1.9,0.6-2.8c0-0.7-0.1-1.4-0.3-2c-0.1-0.3-0.3-0.6-0.4-0.9c-0.8-1.4-5-6.4-6.1-7.9L10.6,12l3.5,4.3
	c0.3,0.3,0.5,0.7,0.8,1.1c0.5,0.8,0.9,1.5,1.2,2.3c0.2,0.8,0.3,1.6,0.1,2.4c-0.4,1.7-2.2,3.5-4.5,3.6c-0.7,0-1.3-0.1-1.9-0.3
	c-0.6-0.2-1.2-0.6-1.6-1c-0.4-0.3-1.8-1.6-1.6-3.5C6.8,19.2,8,18.2,8.2,18l1.3,1.6c-0.4,0.4-0.6,0.9-0.7,1.5
	c-0.1,1.1,0.8,1.8,0.9,1.9c0.3,0.2,0.7,0.4,1.1,0.5c0.4,0.1,0.8,0.1,1.2,0c0.5-0.2,1-0.5,1.4-0.9c0.3-0.4,0.5-1,0.6-1.5
	c0-0.5-0.1-0.9-0.4-1.3l-5.9-7.7L8,11.7c1.1-1.6,2.3-3.1,3.4-4.7l0.5-0.7L12.5,7c0.3,0.4,0.7,0.8,1,1.2c1.7,2.2,5.1,6.1,6.6,8.4l0,0
	C20.8,18,21.2,19.5,21.2,21z"/>
<path class="st0" d="M43.8,11.3h2.9v15.4h-2.9V11.3z M35.8,26.7h-2.9V11.3h2.9V26.7z M44,20.1h-8.4v-2.4H44V20.1z M56,26.9
	c-1.3,0-2.5-0.3-3.4-0.8c-1-0.5-1.7-1.2-2.3-2.2c-0.5-0.9-0.8-1.9-0.8-3.1c0-1.2,0.3-2.2,0.8-3.1c0.5-0.9,1.2-1.6,2.2-2.1
	c0.9-0.5,2-0.8,3.1-0.8c1.1,0,2.2,0.2,3.1,0.7c0.9,0.5,1.6,1.2,2.1,2.1c0.5,0.9,0.8,2,0.8,3.2c0,0.1,0,0.2,0,0.4c0,0.1,0,0.3,0,0.4
	h-9.8v-1.8H60L59,20.5c0-0.7-0.1-1.3-0.4-1.8c-0.3-0.5-0.7-0.9-1.2-1.2c-0.5-0.3-1.1-0.4-1.7-0.4c-0.7,0-1.3,0.1-1.8,0.4
	c-0.5,0.3-0.9,0.7-1.2,1.2c-0.3,0.5-0.4,1.1-0.4,1.8V21c0,0.7,0.2,1.3,0.5,1.9c0.3,0.5,0.8,1,1.4,1.3c0.6,0.3,1.3,0.4,2,0.4
	c0.7,0,1.3-0.1,1.8-0.3c0.5-0.2,1-0.5,1.4-1l1.5,1.7c-0.5,0.6-1.2,1.1-2,1.4C58,26.7,57,26.9,56,26.9z M71.1,26.7v-2.4l-0.2-0.5
	v-4.2c0-0.8-0.2-1.4-0.7-1.9c-0.5-0.5-1.2-0.7-2.2-0.7c-0.7,0-1.3,0.1-2,0.3c-0.6,0.2-1.2,0.5-1.6,0.9l-1.1-2
	c0.6-0.5,1.4-0.8,2.2-1.1c0.9-0.2,1.8-0.4,2.7-0.4c1.7,0,3,0.4,3.9,1.2c0.9,0.8,1.4,2.1,1.4,3.8v6.9H71.1z M67.4,26.9
	c-0.9,0-1.7-0.1-2.3-0.4c-0.7-0.3-1.2-0.7-1.5-1.3C63.2,24.6,63,24,63,23.3c0-0.7,0.2-1.3,0.5-1.8c0.3-0.5,0.8-0.9,1.6-1.3
	c0.7-0.3,1.7-0.5,2.9-0.5h3.4v1.8h-3.2c-0.9,0-1.6,0.2-1.9,0.5c-0.3,0.3-0.5,0.7-0.5,1.1c0,0.5,0.2,0.9,0.6,1.2
	c0.4,0.3,0.9,0.4,1.7,0.4c0.7,0,1.3-0.2,1.8-0.5c0.5-0.3,0.9-0.8,1.2-1.4l0.5,1.7c-0.3,0.7-0.7,1.2-1.4,1.6
	C69.3,26.7,68.4,26.9,67.4,26.9z M81.6,26.9c-1.3,0-2.3-0.3-3-1c-0.7-0.7-1.1-1.7-1.1-3V12.4h2.8v10.5c0,0.6,0.1,1,0.4,1.3
	c0.3,0.3,0.7,0.5,1.2,0.5c0.6,0,1.1-0.2,1.5-0.5l0.8,2c-0.3,0.3-0.7,0.5-1.2,0.6C82.6,26.8,82.1,26.9,81.6,26.9z M75.7,17.2V15h7.8
	v2.2H75.7z M101.4,14.8c0.9,0,1.8,0.2,2.5,0.6c0.7,0.4,1.3,0.9,1.7,1.7c0.4,0.7,0.6,1.7,0.6,2.9v6.7h-2.8v-6.4c0-1-0.2-1.8-0.7-2.3
	c-0.5-0.5-1.1-0.8-2-0.8c-0.6,0-1.1,0.1-1.6,0.4c-0.5,0.3-0.8,0.7-1.1,1.2c-0.2,0.5-0.4,1.2-0.4,2v6H95v-6.4c0-1-0.2-1.8-0.7-2.3
	c-0.5-0.5-1.1-0.8-2-0.8c-0.6,0-1.1,0.1-1.6,0.4c-0.5,0.3-0.8,0.7-1.1,1.2c-0.2,0.5-0.4,1.2-0.4,2v6h-2.8V15h2.6v3.1l-0.5-0.9
	c0.4-0.8,1-1.3,1.7-1.7c0.8-0.4,1.6-0.6,2.6-0.6c1.1,0,2.1,0.3,2.9,0.8c0.8,0.5,1.4,1.4,1.6,2.5l-1.1-0.4c0.4-0.9,1-1.6,1.9-2.1
	C99.2,15.1,100.2,14.8,101.4,14.8z M117,26.7v-2.4l-0.2-0.5v-4.2c0-0.8-0.2-1.4-0.7-1.9c-0.5-0.5-1.2-0.7-2.2-0.7
	c-0.7,0-1.3,0.1-2,0.3c-0.6,0.2-1.2,0.5-1.6,0.9l-1.1-2c0.6-0.5,1.4-0.8,2.2-1.1c0.9-0.2,1.8-0.4,2.7-0.4c1.7,0,3,0.4,3.9,1.2
	c0.9,0.8,1.4,2.1,1.4,3.8v6.9H117z M113.3,26.9c-0.9,0-1.6-0.1-2.3-0.4c-0.7-0.3-1.2-0.7-1.5-1.3c-0.4-0.5-0.5-1.2-0.5-1.8
	c0-0.7,0.2-1.3,0.5-1.8c0.3-0.5,0.8-0.9,1.6-1.3c0.7-0.3,1.7-0.5,2.9-0.5h3.4v1.8H114c-0.9,0-1.6,0.2-1.9,0.5
	c-0.3,0.3-0.5,0.7-0.5,1.1c0,0.5,0.2,0.9,0.6,1.2c0.4,0.3,0.9,0.4,1.6,0.4c0.7,0,1.3-0.2,1.8-0.5c0.5-0.3,0.9-0.8,1.2-1.4l0.5,1.7
	c-0.3,0.7-0.7,1.2-1.4,1.6C115.2,26.7,114.3,26.9,113.3,26.9z M129.6,26.9c-1,0-1.8-0.2-2.6-0.7c-0.8-0.4-1.4-1.1-1.9-2
	c-0.5-0.9-0.7-2-0.7-3.4c0-1.4,0.2-2.5,0.7-3.4c0.5-0.9,1.1-1.5,1.8-2c0.8-0.4,1.7-0.7,2.7-0.7c1.2,0,2.2,0.2,3.1,0.7
	c0.9,0.5,1.6,1.2,2.1,2.1c0.5,0.9,0.8,2,0.8,3.2c0,1.2-0.3,2.3-0.8,3.2c-0.5,0.9-1.2,1.6-2.1,2.1C131.8,26.6,130.8,26.9,129.6,26.9z
	 M123.1,31V15h2.6v2.8l-0.1,3.1l0.2,3.1v7H123.1z M129.3,24.5c0.7,0,1.2-0.1,1.8-0.4c0.5-0.3,0.9-0.7,1.3-1.3c0.3-0.6,0.5-1.2,0.5-2
	c0-0.8-0.2-1.4-0.5-2c-0.3-0.6-0.7-1-1.3-1.3c-0.5-0.3-1.1-0.4-1.8-0.4c-0.7,0-1.3,0.1-1.8,0.4c-0.5,0.3-0.9,0.7-1.3,1.3
	c-0.3,0.5-0.5,1.2-0.5,2c0,0.7,0.2,1.4,0.5,2c0.3,0.6,0.7,1,1.3,1.3C128,24.4,128.6,24.5,129.3,24.5z M138.9,26.9
	c-0.5,0-0.9-0.2-1.3-0.5c-0.4-0.4-0.5-0.8-0.5-1.3c0-0.6,0.2-1,0.5-1.3c0.4-0.3,0.8-0.5,1.3-0.5s0.9,0.2,1.3,0.5
	c0.4,0.3,0.5,0.8,0.5,1.3c0,0.5-0.2,1-0.5,1.3C139.8,26.7,139.4,26.9,138.9,26.9z M148.6,26.9c-1.2,0-2.3-0.3-3.3-0.8
	c-1-0.5-1.7-1.2-2.2-2.2c-0.5-0.9-0.8-1.9-0.8-3.1c0-1.2,0.3-2.2,0.8-3.1c0.5-0.9,1.3-1.6,2.2-2.1c1-0.5,2.1-0.8,3.3-0.8
	c1.1,0,2.1,0.2,3,0.7c0.9,0.5,1.5,1.1,2,2l-2.1,1.2c-0.4-0.6-0.8-1-1.3-1.2c-0.5-0.3-1-0.4-1.6-0.4c-0.7,0-1.3,0.1-1.8,0.4
	c-0.5,0.3-1,0.7-1.3,1.3c-0.3,0.5-0.5,1.2-0.5,2c0,0.8,0.2,1.4,0.5,2c0.3,0.5,0.7,1,1.3,1.3c0.5,0.3,1.2,0.4,1.8,0.4
	c0.6,0,1.1-0.1,1.6-0.4c0.5-0.3,0.9-0.7,1.3-1.2l2.1,1.2c-0.5,0.9-1.1,1.6-2,2C150.7,26.6,149.7,26.9,148.6,26.9z M161.1,26.9
	c-1.2,0-2.3-0.3-3.2-0.8c-0.9-0.5-1.7-1.2-2.2-2.2c-0.5-0.9-0.8-1.9-0.8-3.1c0-1.2,0.3-2.2,0.8-3.1c0.5-0.9,1.3-1.6,2.2-2.1
	c0.9-0.5,2-0.8,3.2-0.8c1.2,0,2.3,0.3,3.2,0.8c1,0.5,1.7,1.2,2.2,2.1c0.5,0.9,0.8,1.9,0.8,3.1c0,1.2-0.3,2.2-0.8,3.1
	c-0.5,0.9-1.3,1.6-2.2,2.2C163.4,26.6,162.3,26.9,161.1,26.9z M161.1,24.5c0.7,0,1.3-0.1,1.8-0.4c0.5-0.3,0.9-0.7,1.2-1.3
	c0.3-0.6,0.5-1.2,0.5-2c0-0.8-0.2-1.4-0.5-2c-0.3-0.6-0.7-1-1.2-1.3c-0.5-0.3-1.1-0.4-1.8-0.4c-0.7,0-1.3,0.1-1.8,0.4
	c-0.5,0.3-0.9,0.7-1.2,1.3c-0.3,0.5-0.5,1.2-0.5,2c0,0.7,0.2,1.4,0.5,2c0.3,0.6,0.7,1,1.2,1.3C159.8,24.4,160.4,24.5,161.1,24.5z
	 M184.8,14.8c0.9,0,1.8,0.2,2.5,0.6c0.7,0.4,1.3,0.9,1.7,1.7c0.4,0.7,0.6,1.7,0.6,2.9v6.7h-2.8v-6.4c0-1-0.2-1.8-0.7-2.3
	c-0.5-0.5-1.1-0.8-2-0.8c-0.6,0-1.1,0.1-1.6,0.4c-0.5,0.3-0.8,0.7-1.1,1.2c-0.2,0.5-0.4,1.2-0.4,2v6h-2.8v-6.4c0-1-0.2-1.8-0.7-2.3
	c-0.5-0.5-1.1-0.8-2-0.8c-0.6,0-1.1,0.1-1.6,0.4c-0.5,0.3-0.8,0.7-1.1,1.2c-0.2,0.5-0.4,1.2-0.4,2v6H170V15h2.6v3.1l-0.5-0.9
	c0.4-0.8,1-1.3,1.7-1.7c0.8-0.4,1.6-0.6,2.6-0.6c1.1,0,2.1,0.3,2.9,0.8c0.8,0.5,1.4,1.4,1.6,2.5l-1.1-0.4c0.4-0.9,1-1.6,1.9-2.1
	C182.6,15.1,183.6,14.8,184.8,14.8z"/>
</svg>
