<?xml version="1.0" encoding="utf-8"?>
<!-- Generator: Adobe Illustrator 28.1.0, SVG Export Plug-In . SVG Version: 6.00 Build 0)  -->
<svg version="1.1" id="Layer_1" xmlns="http://www.w3.org/2000/svg" xmlns:xlink="http://www.w3.org/1999/xlink" x="0px" y="0px"
	 viewBox="0 0 107 34" style="enable-background:new 0 0 107 34;" xml:space="preserve">
<style type="text/css">
	.st0{fill:none;stroke:#FFFFFF;stroke-width:7.3045;}
	.st1{fill:#FFFFFF;}
</style>
<path class="st0" d="M29.5,16.7c0,7-5.7,12.7-12.7,12.7C9.7,29.5,4,23.8,4,16.7C4,9.7,9.7,4,16.7,4C23.8,4,29.5,9.7,29.5,16.7z"/>
<path class="st1" d="M44.1,27.9h5.1V7h-5.1V27.9z M59.7,28.3c6.3,0,8.5-3.9,8.5-7.9s-2.2-7.9-8.5-7.9c-6.3,0-8.5,3.9-8.5,7.9
	C51.2,24.4,53.4,28.3,59.7,28.3z M56.3,20.4c0-3,1-3.9,3.4-3.9s3.4,1,3.4,3.9c0,3-1,3.9-3.4,3.9S56.3,23.4,56.3,20.4z M78,28.3
	c6.3,0,8.5-3.9,8.5-7.9s-2.2-7.9-8.5-7.9c-6.3,0-8.5,3.9-8.5,7.9C69.5,24.4,71.7,28.3,78,28.3z M74.6,20.4c0-3,1-3.9,3.4-3.9
	c2.4,0,3.4,1,3.4,3.9c0,3-1,3.9-3.4,3.9C75.6,24.3,74.6,23.4,74.6,20.4z M98.7,12.5c-2.5,0-4.2,0.9-5.2,2.5v-2h-5.1v20.8h5.1v-8
	c1,1.6,2.7,2.6,5.2,2.6c4.9,0,6.8-3.7,6.8-7.9C105.5,16.2,103.6,12.5,98.7,12.5z M97,24.3c-2.6,0-3.5-1.3-3.5-3.9
	c0-2.6,0.9-3.9,3.5-3.9c2.5,0,3.4,1.2,3.4,3.9C100.4,23.2,99.5,24.3,97,24.3z"/>
</svg>
