<?xml version="1.0" encoding="utf-8"?>
<!-- Generator: Adobe Illustrator 28.1.0, SVG Export Plug-In . SVG Version: 6.00 Build 0)  -->
<svg version="1.1" id="Layer_1" xmlns="http://www.w3.org/2000/svg" xmlns:xlink="http://www.w3.org/1999/xlink" x="0px" y="0px"
	 viewBox="0 0 123 33" style="enable-background:new 0 0 123 33;" xml:space="preserve">
<style type="text/css">
	.st0{fill-rule:evenodd;clip-rule:evenodd;fill:#FFFFFF;}
</style>
<g id="Home">
	<g id="Home---Desktop" transform="translate(-83.000000, -19.000000)">
		<g id="Logo---Colored">
			<g transform="translate(84.000000, 18.558824)">
				<path id="Fill-1" class="st0" d="M25.8,16.9c0,3.5-2.9,6.4-6.4,6.4h-3.7c-0.4,0-0.7-0.3-0.7-0.7v-5.7c0-2.1-1.7-3.8-3.9-3.8
					c-2.2,0-3.9,1.7-3.9,3.8v5.7c0,0.4-0.3,0.7-0.7,0.7h-1c-0.4,0-0.7-0.3-0.7-0.7v-5.7c0-3.5,2.9-6.4,6.4-6.4
					c3.5,0,6.4,2.8,6.4,6.4v3.8h1.9c2.2,0,3.9-1.7,3.9-3.8v-5.7c0-0.4,0.3-0.7,0.7-0.7h1c0.4,0,0.7,0.3,0.7,0.7v0V16.9z M15,1.4
					C6.3,1.4-0.6,8.3-0.6,17s7,15.6,15.6,15.6s15.6-7,15.6-15.6S23.7,1.4,15,1.4L15,1.4z"/>
				<path id="Fill-3" class="st0" d="M44.1,10.6c-3.5,0-6.4,2.8-6.4,6.4v6c0,0.2,0.2,0.4,0.4,0.4h0.5c0.2,0,0.4-0.2,0.4-0.4v-6
					c0-2.8,2.3-5.1,5.1-5.1s5.1,2.3,5.1,5.1v6c0,0.2,0.2,0.4,0.4,0.4h0.5c0.2,0,0.4-0.2,0.4-0.4v-6C50.5,13.4,47.7,10.6,44.1,10.6"
					/>
				<path id="Fill-5" class="st0" d="M59.1,22.1c-2.8,0-5.1-2.3-5.1-5.1s2.3-5.1,5.1-5.1s5.1,2.3,5.1,5.1
					C64.2,19.8,61.9,22.1,59.1,22.1 M65.5,23v-6c0-3.5-2.9-6.4-6.4-6.4c-3.5,0-6.4,2.8-6.4,6.4c0,3.5,2.9,6.4,6.4,6.4
					c2.1,0,3.9-1,5.1-2.5V23c0,0.2,0.2,0.4,0.4,0.4h0.5C65.3,23.3,65.5,23.2,65.5,23"/>
				<path id="Fill-7" class="st0" d="M100.3,22.1c-2.8,0-5.1-2.3-5.1-5.1s2.3-5.1,5.1-5.1c2.8,0,5.1,2.3,5.1,5.1
					S103.1,22.1,100.3,22.1L100.3,22.1z M106.7,17L106.7,17c0-3.5-2.9-6.4-6.4-6.4c-3.5,0-6.4,2.8-6.4,6.4c0,3.5,2.9,6.4,6.4,6.4
					c2.1,0,3.9-1,5.1-2.5V23c0,0.2,0.2,0.4,0.4,0.4h0.5c0.2,0,0.4-0.2,0.4-0.4V17z"/>
				<path id="Fill-9" class="st0" d="M93.2,11c0-0.2-0.2-0.4-0.4-0.4h-0.5c-0.2,0-0.4,0.2-0.4,0.4v6c0,2.8-2.3,5.1-5.2,5.1h-3.6V17
					v-6c0-0.2-0.2-0.4-0.4-0.4h-0.5c-0.2,0-0.4,0.2-0.4,0.4v6v5.1v1.3H87c3.5-0.1,6.2-2.9,6.2-6.4V11z"/>
				<path id="Fill-11" class="st0" d="M73.3,10.6c-3.5,0-6.4,2.8-6.4,6.4v6c0,0.2,0.2,0.4,0.4,0.4h0.5c0.2,0,0.4-0.2,0.4-0.4v-6
					c0-2.8,2.3-5.1,5.1-5.1c2.7,0,4.9,2.1,5.1,4.7c0,0.2,0.2,0.4,0.4,0.4h0.5c0.2,0,0.4-0.2,0.4-0.4C79.5,13.2,76.7,10.6,73.3,10.6"
					/>
				<path id="Fill-13" class="st0" d="M115.3,10.6c-3.5,0-6.4,2.8-6.4,6.3v6c0,0.2,0.2,0.4,0.4,0.4h0.5c0.2,0,0.4-0.2,0.4-0.4v-6
					c0-2.8,2.3-5.1,5.1-5.1c2.7,0,4.9,2.1,5.1,4.7c0,0.2,0.2,0.4,0.4,0.4h0.5c0.2,0,0.4-0.2,0.4-0.4
					C121.5,13.2,118.7,10.6,115.3,10.6"/>
			</g>
		</g>
	</g>
</g>
</svg>
