<?xml version="1.0" encoding="utf-8"?>
<!-- Generator: Adobe Illustrator 28.1.0, SVG Export Plug-In . SVG Version: 6.00 Build 0)  -->
<svg version="1.1" id="Layer_1" xmlns="http://www.w3.org/2000/svg" xmlns:xlink="http://www.w3.org/1999/xlink" x="0px" y="0px"
	 viewBox="0 0 131 34" style="enable-background:new 0 0 131 34;" xml:space="preserve">
<style type="text/css">
	.st0{fill-rule:evenodd;clip-rule:evenodd;fill:#FFFFFF;}
	.st1{fill:#FFFFFF;}
</style>
<path class="st0" d="M33.7,16.6c0,9.2-7.6,16.6-16.9,16.6C7.6,33.2,0,25.8,0,16.6C0,7.4,7.6,0,16.9,0C26.2,0,33.7,7.4,33.7,16.6z
	 M13.1,14.5l-0.2-0.2c-0.6-0.6-1.3-0.9-2.1-0.9c-1.7,0-3.1,1.4-3.1,3.1c0,1.7,1.4,3.1,3.1,3.1c0.8,0,1.6-0.3,2.2-0.9l6.5-6.4l0,0
	l0,0c1.1-1,2.5-1.6,4-1.6c3.2,0,5.8,2.6,5.8,5.8s-2.6,5.8-5.8,5.8c-1.5,0-2.9-0.6-4-1.6l0,0l0,0l0,0l0,0l0,0L19,20.4L18.5,20
	l0.4-0.4l1-1l0.5-0.5l0.5,0.5l0.3,0.3c0.6,0.5,1.3,0.8,2.1,0.8c1.7,0,3.1-1.4,3.1-3.1c0-1.7-1.4-3.1-3.1-3.1c-0.8,0-1.5,0.3-2.1,0.8
	l-6.5,6.4l0,0l0,0c-1.1,1.1-2.5,1.6-4,1.6c-3.2,0-5.8-2.6-5.8-5.8c0-3.2,2.6-5.8,5.8-5.8c1.5,0,3,0.6,4,1.6l0,0l0,0l0,0l0,0l0.2,0.2
	l0.4,0.5L15,13.6l-1,1L13.5,15L13.1,14.5z"/>
<path class="st1" d="M40.4,26.9h4.9v-6.6h2.3l3.6,6.6h5.5L52.7,20c-0.5-0.8-0.8-1.2-0.8-1.2v-0.1c2-1,3-3.3,3-5.4
	c0-2.9-1.4-4.9-3.7-5.7c-0.9-0.3-1.8-0.5-3.9-0.5h-7V26.9z M45.3,16.1v-4.8H47c2.5,0,3,0.9,3,2.4c0,1.6-1,2.4-2.5,2.4H45.3z
	 M59.5,26.9h12.9v-4.1h-8V19h6.1v-4.1h-6.1v-3.6H72V7.2H59.5V26.9z M75.9,26.9h7.4c4,0,7.6-1.6,7.6-5.9c0-1.7-0.8-3.7-3.1-4.4v-0.1
	c1.5-0.9,2.3-2.5,2.3-4.2c0-3.4-2.8-5.1-6.8-5.1h-7.4V26.9z M80.8,14.8v-3.5h2.4c1.3,0,1.8,0.8,1.8,1.7c0,0.9-0.5,1.8-1.8,1.8H80.8z
	 M80.8,22.7v-4.1h3c1.4,0,2.1,0.9,2.1,2c0,1.1-0.7,2.1-2.1,2.1H80.8z M94.1,19.6c0,4.4,3.3,7.6,8.4,7.6c5,0,8.3-3.1,8.3-7.6V7.2
	h-4.9v12.4c0,2.1-1.4,3.2-3.5,3.2c-2.1,0-3.5-1.1-3.5-3.2V7.2h-4.9V19.6z M119.4,26.9h4.9v-8.1l6.6-11.6h-5.6l-2.2,4.7
	c-0.6,1.3-1.2,2.8-1.2,2.8h-0.1c0,0-0.6-1.5-1.2-2.8l-2.3-4.7h-5.6l6.6,11.6V26.9z"/>
</svg>
