<?xml version="1.0" encoding="utf-8"?>
<!-- Generator: Adobe Illustrator 28.1.0, SVG Export Plug-In . SVG Version: 6.00 Build 0)  -->
<svg version="1.1" id="Layer_1" xmlns="http://www.w3.org/2000/svg" xmlns:xlink="http://www.w3.org/1999/xlink" x="0px" y="0px"
	 viewBox="0 0 152 36" style="enable-background:new 0 0 152 36;" xml:space="preserve">
<style type="text/css">
	.st0{clip-path:url(#SVGID_00000084508342977038753660000001211562218480639668_);}
	.st1{fill:#FFFFFF;}
</style>
<g>
	<defs>
		<rect id="SVGID_1_" width="152" height="35.5"/>
	</defs>
	<clipPath id="SVGID_00000065781879324781897280000015997611475087867814_">
		<use xlink:href="#SVGID_1_"  style="overflow:visible;"/>
	</clipPath>
	<g style="clip-path:url(#SVGID_00000065781879324781897280000015997611475087867814_);">
		<path class="st1" d="M37.2,12.7L26.4,1.9c-0.6-0.6-1.3-1.1-2.1-1.4S22.6,0,21.8,0c-0.9,0-1.7,0.2-2.5,0.5s-1.5,0.8-2.1,1.4
			l-4.8,4.8c2.5,0.4,4.8,1.7,6.5,3.6c1.7,1.9,2.6,4.4,2.6,6.9s-0.9,5-2.6,6.9c-1.7,1.9-3.9,3.2-6.5,3.6l4.8,4.8
			c0.6,0.6,1.3,1.1,2.1,1.4c0.8,0.3,1.6,0.5,2.5,0.5s1.7-0.2,2.5-0.5c0.8-0.3,1.5-0.8,2.1-1.4l10.8-10.8c1.2-1.2,1.9-2.9,1.9-4.6
			S38.4,13.9,37.2,12.7z"/>
		<path class="st1" d="M12.2,6.9l0.1-0.1C10.8,6.5,9.3,6.6,7.8,7c-1.5,0.4-2.9,1.2-4,2.2c-1.2,1-2.1,2.3-2.8,3.7
			c-0.6,1.4-1,2.9-1,4.5c0,1.5,0.3,3.1,1,4.5c0.6,1.4,1.6,2.7,2.8,3.7c1.2,1,2.6,1.7,4,2.2c1.5,0.4,3.1,0.5,4.6,0.3l-0.1-0.1
			c-2.8-2.8-4.3-6.5-4.3-10.4C7.9,13.4,9.5,9.6,12.2,6.9z"/>
		<path class="st1" d="M70.8,11.7h3.5v14h-3.5V24c-0.7,0.7-1.5,1.2-2.4,1.6s-1.9,0.5-2.8,0.5c-1.8,0-3.6-0.7-5-1.9
			c-1.5-1.3-2.2-3.1-2.2-5.4s0.7-4.1,2.2-5.4c1.4-1.2,3.2-1.9,5-1.9c1,0,1.9,0.2,2.8,0.5c0.9,0.4,1.7,0.9,2.4,1.6V11.7z M66.3,22.7
			c1.2,0.1,2.3-0.3,3.2-1.1c0.4-0.4,0.7-0.8,0.9-1.3c0.2-0.5,0.3-1,0.3-1.6c0-0.5-0.1-1.1-0.3-1.6c-0.2-0.5-0.5-1-0.9-1.3
			c-0.9-0.7-2-1.1-3.2-1.1c-1.2,0-2.3,0.4-3.2,1.1c-0.4,0.4-0.7,0.8-0.9,1.3c-0.2,0.5-0.3,1-0.3,1.6c0,0.6,0.1,1.1,0.3,1.6
			c0.2,0.5,0.5,1,0.9,1.3C64,22.4,65.2,22.8,66.3,22.7z"/>
		<path class="st1" d="M90.5,13.2c1.4,1.3,2.2,3.1,2.2,5.4c0,2.3-0.7,4.2-2.2,5.4c-1.4,1.2-3.2,1.9-5,1.9c-1,0-1.9-0.1-2.8-0.5
			c-0.9-0.4-1.7-0.9-2.4-1.6v6.6h-3.5V11.7h3.5v1.7c0.7-0.7,1.5-1.2,2.4-1.6c0.9-0.4,1.8-0.5,2.8-0.5C87.3,11.3,89.1,12,90.5,13.2z
			 M84.7,22.7c1.2,0.1,2.3-0.3,3.2-1.1c0.4-0.4,0.7-0.8,0.9-1.3c0.2-0.5,0.3-1,0.3-1.6c0-0.5-0.1-1.1-0.3-1.6
			c-0.2-0.5-0.5-1-0.9-1.3c-0.9-0.8-2-1.2-3.2-1.1c-1.2-0.1-2.3,0.3-3.2,1.1c-0.4,0.4-0.7,0.8-0.9,1.3c-0.2,0.5-0.3,1-0.3,1.6
			c0,0.5,0.1,1.1,0.3,1.6c0.2,0.5,0.5,1,0.9,1.3C82.4,22.4,83.5,22.8,84.7,22.7z"/>
		<path class="st1" d="M96.9,24.3c-0.9-0.7-1.5-1.5-2-2.5c-0.5-1-0.7-2.1-0.6-3.1c0-1.1,0.2-2.1,0.6-3.1c0.5-1,1.1-1.8,2-2.5
			c1.6-1.1,3.5-1.7,5.4-1.7c2.4,0,4.9,1,6.4,2.8c0,0-2.6,2.6-2.6,2.6c-0.4-0.6-1-1.2-1.7-1.5c-0.7-0.4-1.4-0.5-2.2-0.5
			c-1.1,0-2.2,0.4-3.1,1c-0.5,0.3-0.8,0.8-1.1,1.3c-0.2,0.5-0.3,1.1-0.3,1.7c0,0.6,0.1,1.1,0.3,1.7c0.2,0.5,0.6,1,1.1,1.3
			c0.9,0.7,2,1,3.1,1c1.6,0,3.2-0.7,3.9-2.1l2.6,2.6l0,0c-0.7,0.8-1.5,1.5-2.5,1.9c-1.2,0.6-2.6,0.9-3.9,0.9
			C100.4,26.1,98.5,25.4,96.9,24.3z"/>
		<path class="st1" d="M122.1,11.7h3.5v14h-3.5V24c-0.7,0.7-1.5,1.2-2.4,1.6c-0.9,0.4-1.9,0.5-2.8,0.5c-1.8,0-3.6-0.7-5-1.9
			c-1.5-1.3-2.2-3.1-2.2-5.4s0.7-4.1,2.2-5.4c1.4-1.2,3.2-1.9,5-1.9c1,0,1.9,0.2,2.8,0.5c0.9,0.4,1.7,0.9,2.4,1.6L122.1,11.7z
			 M117.7,22.7c1.2,0.1,2.3-0.3,3.2-1.1c0.4-0.4,0.7-0.8,0.9-1.3c0.2-0.5,0.3-1,0.3-1.6c0-0.5-0.1-1.1-0.3-1.6s-0.5-1-0.9-1.3
			c-0.9-0.7-2-1.1-3.2-1.1c-1.2,0-2.3,0.4-3.2,1.1c-0.4,0.4-0.7,0.8-0.9,1.3c-0.2,0.5-0.3,1-0.3,1.6c0,0.5,0.1,1.1,0.3,1.6
			c0.2,0.5,0.5,1,0.9,1.3C115.4,22.4,116.5,22.8,117.7,22.7z"/>
		<path class="st1" d="M131.6,13.9c1.6-1.7,3.6-2.2,5.9-2.2V15c-2.6,0-5.9,1.1-5.9,4.4v6.3h-3.5v-14h3.5V13.9z"/>
		<path class="st1" d="M55.6,21.6c-0.1,0.3-0.3,0.6-0.6,0.8c-0.3,0.2-0.6,0.3-1,0.3c-1,0-1.7-0.7-1.7-1.9v-5.7h4.5v-3.4h-4.5V7
			l-3.5,2.1v2.6h-3.5v3.4h3.4v6.2c0,0.6,0.1,1.3,0.3,1.9c0.3,0.6,0.6,1.1,1.1,1.6c1,0.9,2.3,1.4,3.7,1.3c0.8,0,1.5-0.1,2.2-0.4
			c0.7-0.3,1.3-0.8,1.8-1.3l0.1-0.1C58.2,24.2,55.7,21.6,55.6,21.6z"/>
		<path class="st1" d="M149.5,21.6c-0.1,0.3-0.3,0.6-0.6,0.8c-0.3,0.2-0.6,0.3-1,0.3c-1,0-1.7-0.7-1.7-1.9v-5.7h4.5v-3.4h-4.5V7h0
			l-3.5,2.1v2.6h-3.4v3.4h3.4v6.2c0,0.6,0.1,1.3,0.3,1.9c0.3,0.6,0.6,1.1,1.1,1.6c1,0.9,2.4,1.4,3.7,1.3h0c0.8,0,1.5-0.1,2.2-0.4
			c0.7-0.3,1.3-0.8,1.8-1.3l0.1-0.1C152,24.2,149.5,21.6,149.5,21.6z"/>
	</g>
</g>
</svg>
